<?xml version="1.0" encoding="UTF-8" standalone="no"?>
<!-- Created with Inkscape (http://www.inkscape.org/) -->

<svg
   xmlns:dc="http://purl.org/dc/elements/1.1/"
   xmlns:cc="http://creativecommons.org/ns#"
   xmlns:rdf="http://www.w3.org/1999/02/22-rdf-syntax-ns#"
   xmlns:svg="http://www.w3.org/2000/svg"
   xmlns="http://www.w3.org/2000/svg"
   xmlns:sodipodi="http://sodipodi.sourceforge.net/DTD/sodipodi-0.dtd"
   xmlns:inkscape="http://www.inkscape.org/namespaces/inkscape"
   width="166mm"
   height="196mm"
   viewBox="0 0 166 196"
   version="1.1"
   id="svg8"
   enable-background="new"
   inkscape:version="0.92.4 (fd57863, 2020-04-02)"
   sodipodi:docname="no_image_food.svg">
  <defs
     id="defs2" />
  <sodipodi:namedview
     id="base"
     pagecolor="#ffffff"
     bordercolor="#666666"
     borderopacity="1.0"
     inkscape:pageopacity="0.0"
     inkscape:pageshadow="2"
     inkscape:zoom="0.35"
     inkscape:cx="450"
     inkscape:cy="548.57143"
     inkscape:document-units="mm"
     inkscape:current-layer="layer1"
     showgrid="true"
     units="mm"
     width="209mm"
     inkscape:window-width="1296"
     inkscape:window-height="704"
     inkscape:window-x="70"
     inkscape:window-y="27"
     inkscape:window-maximized="1">
    <inkscape:grid
       type="xygrid"
       id="grid4546" />
  </sodipodi:namedview>
  <metadata
     id="metadata5">
    <rdf:RDF>
      <cc:Work
         rdf:about="">
        <dc:format>image/svg+xml</dc:format>
        <dc:type
           rdf:resource="http://purl.org/dc/dcmitype/StillImage" />
        <dc:title></dc:title>
      </cc:Work>
    </rdf:RDF>
  </metadata>
  <g
     inkscape:label="Layer 1"
     inkscape:groupmode="layer"
     id="layer1"
     transform="translate(0,-101)">
    <g
       id="g4530"
       transform="matrix(0.32071042,0,0,0.32853235,0.99022151,112.2739)">
      <circle
         id="circle4518"
         class=""
         data-original="#CDD6E0"
         r="256"
         cy="256.13699"
         cx="256.70999"
         style="fill:#cdd6e0" />
      <circle
         id="circle4520"
         class=""
         data-original="#ACB3BA"
         r="184.533"
         cy="256.13699"
         cx="256.70999"
         style="fill:#acb3ba" />
      <path
         id="path4522"
         class=""
         data-original="#F2F2F2"
         d="m 264.177,0.137 c -5.333,0 -8.533,5.333 -8.533,9.6 v 97.067 c 0,5.333 -4.267,9.6 -9.6,9.6 -5.333,0 -9.6,-4.267 -9.6,-9.6 V 9.737 c 0,-5.333 -3.2,-9.6 -8.533,-9.6 -5.333,-1.067 -10.667,4.267 -10.667,9.6 v 97.067 c 0,5.333 -4.267,9.6 -9.6,9.6 v 0 c -5.333,0 -9.6,-4.267 -9.6,-9.6 V 9.737 c 0,-5.333 -3.2,-9.6 -8.533,-9.6 -5.333,-1.067 -10.667,4.267 -10.667,9.6 v 97.067 c 0,5.333 -4.267,9.6 -9.6,9.6 v 0 c -5.333,0 -9.6,-4.267 -9.6,-9.6 V 9.737 c 0,-5.333 -3.2,-9.6 -8.533,-9.6 -5.333,-1.067 -10.667,4.267 -10.667,9.6 V 117.47 c 0,18.133 7.467,34.133 19.2,46.933 19.2,19.2 29.867,45.867 27.733,72.533 l -21.333,230.4 c 0,2.133 0,5.333 0,7.467 2.133,23.467 24.533,40.533 48,36.267 21.333,-4.267 35.2,-24.533 33.067,-45.867 L 226.844,235.87 c -2.133,-27.733 8.533,-53.333 27.733,-72.533 11.733,-11.733 19.2,-28.8 19.2,-46.933 V 9.737 c 0,-5.333 -4.267,-9.6 -9.6,-9.6 z"
         style="fill:#f2f2f2"
         inkscape:connector-curvature="0" />
      <path
         id="path4524"
         data-old_color="#40596B"
         class="active-path"
         data-original="#40596B"
         d="m 227.91,240.137 h -40.533 l -20.267,227.2 c 0,2.133 0,5.333 0,7.467 2.133,23.467 24.533,40.533 48,36.267 21.333,-4.267 35.2,-24.533 33.067,-45.867 z"
         style="fill:#c12020"
         inkscape:connector-curvature="0" />
      <path
         id="path4526"
         class=""
         data-original="#F2F2F2"
         d="m 355.91,0.137 c 0,0 -45.867,18.133 -65.067,155.733 -7.467,56.533 4.267,112 25.6,164.267 2.133,5.333 3.2,11.733 3.2,18.133 l -12.8,137.6 c 0,2.133 0,4.267 0,6.4 2.133,18.133 18.133,32 37.333,29.867 17.067,-2.133 28.8,-20.267 27.733,-37.333 z"
         style="fill:#f2f2f2"
         inkscape:connector-curvature="0" />
      <path
         id="path4528"
         data-old_color="#FF7058"
         class=""
         data-original="#FF7058"
         d="m 319.644,337.204 c 0,1.067 0,1.067 0,2.133 l -12.8,137.6 c 0,2.133 0,4.267 0,6.4 2.133,18.133 18.133,32 37.333,29.867 17.067,-2.133 28.8,-20.267 27.733,-37.333 l -4.267,-137.6 h -48 v -1.067 z"
         style="fill:#eb7d16"
         inkscape:connector-curvature="0" />
    </g>
    <text
       xml:space="preserve"
       style="font-style:normal;font-weight:normal;font-size:48.54017258px;line-height:1.25;font-family:sans-serif;text-align:center;letter-spacing:0px;word-spacing:0px;text-anchor:middle;opacity:0.3;fill:#000000;fill-opacity:1;stroke:none;stroke-width:1.21350431"
       x="60.588223"
       y="254.08835"
       id="text4550"
       transform="matrix(1.2111752,0,0,0.74633725,9.8801054,-3.0218562)"><tspan
         sodipodi:role="line"
         id="tspan4548"
         x="60.588223"
         y="254.08835"
         style="font-style:normal;font-variant:normal;font-weight:bold;font-stretch:normal;font-family:Impact;-inkscape-font-specification:'Impact Bold';text-align:center;text-anchor:middle;stroke-width:1.21350431">NO</tspan><tspan
         sodipodi:role="line"
         x="60.588223"
         y="320.40961"
         style="font-style:normal;font-variant:normal;font-weight:bold;font-stretch:normal;font-family:Impact;-inkscape-font-specification:'Impact Bold';text-align:center;text-anchor:middle;stroke-width:1.21350431"
         id="tspan4552">IMAGE</tspan></text>
  </g>
</svg>
