<svg height="504pt" viewBox="-58 0 504 504" width="504pt" xmlns="http://www.w3.org/2000/svg"><path d="m329.335938 496h-222.671876c-27.5 0-50-22.5-50-50v-352c0-27.5 22.5-50 50-50h222.667969c27.5 0 50 22.5 50 50v352c.003907 27.5-22.496093 50-49.996093 50zm0 0" fill="#ffcfcf"/><path d="m330 58v352c0 27.5-22.5 50-50 50h-222.660156c-27.5 0-50-22.5-50-50v-352c0-27.5 22.5-50 50-50h222.660156c27.5 0 50 22.5 50 50zm0 0" fill="#ffefee"/><path d="m330 58v352c0 27.5-22.5 50-50 50h-192.660156c-27.5 0-50-22.5-50-50v-352c0-27.5 22.5-50 50-50h192.660156c27.5 0 50 22.5 50 50zm0 0" fill="#ffe2e2"/><path d="m280 8h-30c27.5 0 50 22.5 50 50v352c0 27.5-22.5 50-50 50h30c27.5 0 50-22.5 50-50v-352c0-27.5-22.5-50-50-50zm0 0" fill="#ffcfcf"/><g fill="#5f266d"><path d="m334.390625 36.183594c-8.636719-21.199219-29.457031-36.183594-53.726563-36.183594h-222.664062c-31.980469 0-58 26.019531-58 58v352c0 30.523438 23.707031 55.597656 53.671875 57.820312 8.816406 21.558594 30.089844 36.179688 53.667969 36.179688h222.660156c31.980469 0 58-26.019531 58-58v-352c0-30.503906-23.675781-55.5625-53.609375-57.816406zm-276.390625 415.816406c-23.15625 0-42-18.839844-42-42v-352c0-23.160156 18.84375-42 42-42h222.664062c23.160157 0 42 18.839844 42 42v352c0 23.160156-18.839843 42-42 42zm314-6c0 23.160156-18.84375 42-42 42h-222.660156c-14.691406 0-28.144532-7.855469-35.6875-20h209.011718c31.980469 0 58-26.019531 58-58 0-377.117188.121094-353.101562-.238281-357.148438 19.132813 3.910157 33.574219 20.875 33.574219 41.148438zm0 0"/><path d="m52.335938 202.164062h234c4.417968 0 8-3.578124 8-8 0-4.417968-3.582032-8-8-8h-234c-4.421876 0-8 3.582032-8 8 0 4.421876 3.578124 8 8 8zm0 0"/><path d="m52.335938 238.164062h234c4.417968 0 8-3.578124 8-8 0-4.417968-3.582032-8-8-8h-234c-4.421876 0-8 3.582032-8 8 0 4.421876 3.578124 8 8 8zm0 0"/><path d="m52.335938 274.164062h234c4.417968 0 8-3.578124 8-8 0-4.417968-3.582032-8-8-8h-234c-4.421876 0-8 3.582032-8 8 0 4.421876 3.578124 8 8 8zm0 0"/><path d="m52.335938 310.164062h234c4.417968 0 8-3.578124 8-8 0-4.417968-3.582032-8-8-8h-234c-4.421876 0-8 3.582032-8 8 0 4.421876 3.578124 8 8 8zm0 0"/><path d="m294.335938 338.164062c0-4.417968-3.582032-8-8-8h-234c-4.421876 0-8 3.582032-8 8 0 4.421876 3.578124 8 8 8h234c4.417968 0 8-3.578124 8-8zm0 0"/><path d="m237.664062 366.164062h-136.664062c-4.417969 0-8 3.582032-8 8 0 4.421876 3.582031 8 8 8h136.664062c4.421876 0 8-3.578124 8-8 0-4.417968-3.578124-8-8-8zm0 0"/><path d="m92.679688 131.382812c11.105468 2.964844 17.914062 5.195313 17.914062 13.355469 0 14.378907-24.28125 15.609375-28.546875 2.875-2.9375-8.761719-17.777344-4.984375-14.867187 4.0625 8.328124 25.851563 58.164062 23.285157 58.164062-7.402343 0-17.957032-14.632812-21.984376-26.390625-25.222657-10.886719-2.996093-17.554687-5.222656-17.554687-12.882812 0-14.089844 22.082031-14.40625 26.738281-3.613281 3.65625 8.480468 18.292969 3.5625 14.476562-5.261719-10.042969-23.214844-56.085937-20.332031-56.085937 9.226562-.003906 17.878907 14.5 21.753907 26.152344 24.863281zm0 0"/><path d="m151.640625 161.503906v-19.261718c0-2.722657 3.355469-4.015626 5.179687-1.992188 25.59375 28.359375 24.3125 28.226562 28.964844 28.226562 6.070313 0 9.242188-7.210937 5.144532-11.683593l-26.585938-29.003907c-1.042969-1.136718-1.046875-2.855468-.015625-4l26.371094-29.125c6.140625-6.78125-4.152344-16.292968-10.375-9.320312l-23.492188 26.347656c-1.816406 2.035156-5.195312.757813-5.195312-1.980468v-19.726563c0-9.40625-14.632813-9.132813-14.632813 0v71.519531c0 9.320313 14.636719 9.296875 14.636719 0zm0 0"/><path d="m239.402344 169.296875c15.828125 0 32.738281-8.632813 32.738281-32.859375v-46.453125c0-9.148437-14.632813-9.382813-14.632813 0v46.574219c0 12.867187-6.050781 19.390625-17.988281 19.390625-12.011719 0-18.105469-6.523438-18.105469-19.390625v-46.574219c0-3.84375-3.125-6.972656-6.96875-6.972656h-.691406c-3.847656 0-6.972656 3.128906-6.972656 6.972656v46.457031c-.003906 20.265625 12.496094 32.855469 32.621094 32.855469zm0 0"/></g></svg>