<svg id="el2qpfgvb1ib1" xmlns="http://www.w3.org/2000/svg" xmlns:xlink="http://www.w3.org/1999/xlink" viewBox="0 0 511.999000 511.999000" shape-rendering="geometricPrecision" text-rendering="geometricPrecision"><ellipse id="el2qpfgvb1ib2" rx="81.235000" ry="33.104000" transform="matrix(1 0 0 1 125.77000000000000 471.39100000000002)" fill="rgb(255,219,86)" stroke="none" stroke-width="1"/><path id="el2qpfgvb1ib3" d="M199.919000,457.873000C187.231000,469.417000,158.813000,477.464000,125.766000,477.464000C92.719000,477.464000,64.301000,469.417000,51.613000,457.873000C47.076000,462.001000,44.533000,466.571000,44.533000,471.387000C44.533000,489.671000,80.902000,504.492000,125.767000,504.492000C170.631000,504.492000,207.001000,489.671000,207.001000,471.387000C206.999000,466.571000,204.454000,462,199.919000,457.873000Z" fill="rgb(255,187,36)" stroke="none" stroke-width="1"/><path id="el2qpfgvb1ib4" d="M125.767000,161.410000C60.583000,161.410000,7.740000,214.252000,7.740000,279.437000C7.740000,378.700000,125.767000,470.032000,125.767000,470.032000C125.767000,470.032000,243.794000,378.700000,243.794000,279.437000C243.794000,214.252000,190.952000,161.410000,125.767000,161.410000ZM125.767000,326.511000C99.769000,326.511000,78.693000,305.435000,78.693000,279.437000C78.693000,253.439000,99.769000,232.362000,125.767000,232.362000C151.765000,232.362000,172.842000,253.438000,172.842000,279.437000C172.842000,305.435000,151.766000,326.511000,125.767000,326.511000Z" fill="rgb(255,74,74)" stroke="none" stroke-width="1"/><path id="el2qpfgvb1ib5" d="M125.767000,161.410000C121.196000,161.410000,116.689000,161.678000,112.253000,162.185000C171.071000,168.891000,216.766000,218.824000,216.766000,279.437000C216.766000,357.794000,143.233000,431.195000,112.253000,458.645000C120.519000,465.969000,125.767000,470.034000,125.767000,470.034000C125.767000,470.034000,243.794000,378.702000,243.794000,279.439000C243.794000,214.252000,190.952000,161.410000,125.767000,161.410000Z" fill="rgb(231,52,63)" stroke="none" stroke-width="1"/><ellipse id="el2qpfgvb1ib6" rx="62.435000" ry="25.443000" transform="matrix(1 0 0 1 413.54000000000002 245.74600000000001)" fill="rgb(255,219,86)" stroke="none" stroke-width="1"/><path id="el2qpfgvb1ib7" d="M466.435000,232.233000C455.389000,239.397000,435.838000,244.162000,413.544000,244.162000C391.250000,244.162000,371.698000,239.397000,360.653000,232.233000C354.615000,236.149000,351.110000,240.780000,351.110000,245.747000C351.110000,259.800000,379.062000,271.190000,413.544000,271.190000C448.025000,271.190000,475.978000,259.798000,475.978000,245.747000C475.978000,240.780000,472.473000,236.150000,466.435000,232.233000Z" fill="rgb(255,187,36)" stroke="none" stroke-width="1"/><path id="el2qpfgvb1ib8" d="M413.546000,7.508000C363.447000,7.508000,322.835000,48.121000,322.835000,98.220000C322.835000,174.511000,413.546000,244.706000,413.546000,244.706000C413.546000,244.706000,504.258000,174.511000,504.258000,98.220000C504.258000,48.121000,463.645000,7.508000,413.546000,7.508000ZM413.546000,134.400000C393.564000,134.400000,377.366000,118.202000,377.366000,98.220000C377.366000,78.238000,393.564000,62.040000,413.546000,62.040000C433.528000,62.040000,449.727000,78.238000,449.727000,98.220000C449.727000,118.202000,433.528000,134.400000,413.546000,134.400000Z" fill="rgb(255,74,74)" stroke="none" stroke-width="1"/><path id="el2qpfgvb1ib9" d="M413.546000,7.508000C408.953000,7.508000,404.442000,7.852000,400.032000,8.511000C443.720000,15.037000,477.229000,52.714000,477.229000,98.219000C477.229000,155.941000,425.309000,210.165000,400.032000,233.144000C408.163000,240.537000,413.546000,244.705000,413.546000,244.705000C413.546000,244.705000,504.257000,174.510000,504.257000,98.219000C504.257000,48.121000,463.645000,7.508000,413.546000,7.508000Z" fill="rgb(231,52,63)" stroke="none" stroke-width="1"/><path id="el2qpfgvb1ib10" d="M125.767000,153.902000C56.547000,153.902000,0.232000,210.217000,0.232000,279.437000C0.232000,322.414000,20.676000,368.622000,60.997000,416.778000C66.988000,423.933000,72.958000,430.563000,78.687000,436.612000C52.653000,443.718000,37.023000,456.485000,37.023000,471.386000C37.023000,497.765000,82.745000,511.999000,125.764000,511.999000C168.783000,511.999000,214.505000,497.764000,214.505000,471.386000C214.505000,456.497000,198.879000,443.727000,172.862000,436.618000C183.256000,425.645000,194.440000,412.735000,205.052000,398.335000C207.513000,394.997000,206.800000,390.297000,203.462000,387.837000C200.126000,385.380000,195.424000,386.090000,192.964000,389.428000C180.152000,406.815000,166.284000,422.095000,154.183000,434.232000C152.796000,434.940000,151.636000,436.064000,150.909000,437.481000C140.069000,448.134000,130.947000,456.037000,125.772000,460.355000C120.653000,456.079000,111.670000,448.283000,100.969000,437.769000C100.201000,436.086000,98.852000,434.766000,97.206000,434.030000C63.199000,399.825000,15.249000,340.729000,15.249000,279.439000C15.249000,218.499000,64.828000,168.920000,125.768000,168.920000C186.708000,168.920000,236.287000,218.499000,236.287000,279.439000C236.287000,306.052000,227.219000,334.792000,209.335000,364.861000C207.216000,368.426000,208.386000,373.033000,211.950000,375.152000C215.514000,377.271000,220.122000,376.101000,222.241000,372.537000C241.525000,340.113000,251.303000,308.791000,251.303000,279.439000C251.302000,210.217000,194.987000,153.902000,125.767000,153.902000ZM125.767000,477.540000C127.388000,477.540000,129.009000,477.017000,130.362000,475.970000C131.284000,475.257000,143.829000,465.473000,160.552000,449.122000C185.874000,454.286000,199.490000,464.229000,199.490000,471.386000C199.490000,476.731000,192.164000,483.037000,180.371000,487.842000C165.907000,493.737000,146.514000,496.984000,125.764000,496.984000C80.759000,496.984000,52.038000,481.822000,52.038000,471.386000C52.038000,464.219000,65.658000,454.281000,90.994000,449.117000C107.811000,465.565000,120.375000,475.352000,121.172000,475.970000C122.525000,477.018000,124.147000,477.540000,125.767000,477.540000Z" fill="rgb(0,0,0)" stroke="none" stroke-width="1"/><path id="el2qpfgvb1ib11" d="M82.585000,259.211000C78.601000,258.071000,74.442000,260.371000,73.297000,264.356000C71.896000,269.239000,71.185000,274.312000,71.185000,279.438000C71.185000,309.534000,95.670000,334.020000,125.767000,334.020000C155.864000,334.020000,180.349000,309.535000,180.349000,279.438000C180.349000,249.341000,155.864000,224.855000,125.767000,224.855000C113.892000,224.855000,102.600000,228.604000,93.112000,235.697000C89.792000,238.180000,89.112000,242.885000,91.594000,246.206000C94.078000,249.526000,98.782000,250.205000,102.103000,247.724000C108.974000,242.587000,117.157000,239.871000,125.766000,239.871000C147.584000,239.871000,165.332000,257.620000,165.332000,279.438000C165.332000,301.255000,147.583000,319.004000,125.766000,319.004000C103.949000,319.004000,86.200000,301.255000,86.200000,279.438000C86.200000,275.715000,86.715000,272.034000,87.730000,268.500000C88.874000,264.513000,86.571000,260.355000,82.585000,259.211000Z" fill="rgb(0,0,0)" stroke="none" stroke-width="1"/><path id="el2qpfgvb1ib12" d="M483.486000,245.747000C483.486000,233.851000,472.304000,223.943000,452.958000,218.121000C456.778000,214.022000,460.712000,209.606000,464.659000,204.892000C495.917000,167.559000,511.766000,131.670000,511.766000,98.219000C511.765000,44.062000,467.704000,0,413.546000,0C373.983000,0,338.460000,23.546000,323.049000,59.986000C321.433000,63.805000,323.220000,68.211000,327.038000,69.825000C330.856000,71.439000,335.263000,69.654000,336.877000,65.836000C349.935000,34.964000,380.029000,15.015000,413.546000,15.015000C459.425000,15.015000,496.750000,52.341000,496.750000,98.220000C496.750000,160.264000,431.612000,219.704000,413.543000,234.995000C409.561000,231.629000,403.293000,226.122000,395.944000,218.918000C395.211000,217.464000,394.026000,216.313000,392.605000,215.600000C366.682000,189.499000,330.342000,144.632000,330.342000,98.220000C330.342000,94.073000,326.982000,90.712000,322.834000,90.712000C318.687000,90.712000,315.326000,94.072000,315.326000,98.220000C315.326000,131.670000,331.176000,167.560000,362.434000,204.893000C366.379000,209.604000,370.311000,214.019000,374.129000,218.116000C354.775000,223.931000,343.602000,233.829000,343.602000,245.748000C343.602000,255.799000,351.756000,264.659000,366.564000,270.692000C379.234000,275.855000,395.919000,278.699000,413.545000,278.699000C431.170000,278.699000,447.855000,275.855000,460.526000,270.692000C475.331000,264.658000,483.486000,255.798000,483.486000,245.747000ZM413.544000,263.682000C378.005000,263.682000,358.618000,251.834000,358.618000,245.746000C358.618000,241.780000,367.437000,234.522000,386.269000,230.518000C398.940000,242.847000,408.345000,250.173000,408.952000,250.644000C410.305000,251.691000,411.926000,252.214000,413.547000,252.214000C415.168000,252.214000,416.788000,251.691000,418.142000,250.644000C418.749000,250.175000,428.152000,242.848000,440.823000,230.520000C449.213000,232.309000,456.481000,234.930000,461.567000,238.027000C465.890000,240.661000,468.471000,243.547000,468.471000,245.747000C468.470000,251.834000,449.083000,263.682000,413.544000,263.682000Z" fill="rgb(0,0,0)" stroke="none" stroke-width="1"/><path id="el2qpfgvb1ib13" d="M457.234000,98.220000C457.234000,74.131000,437.636000,54.532000,413.546000,54.532000C389.457000,54.532000,369.857000,74.130000,369.857000,98.220000C369.857000,122.309000,389.455000,141.907000,413.546000,141.907000C437.637000,141.907000,457.234000,122.310000,457.234000,98.220000ZM384.874000,98.220000C384.874000,82.410000,397.736000,69.547000,413.547000,69.547000C429.357000,69.547000,442.220000,82.409000,442.220000,98.220000C442.220000,114.029000,429.358000,126.892000,413.547000,126.892000C397.736000,126.892000,384.874000,114.030000,384.874000,98.220000Z" fill="rgb(0,0,0)" stroke="none" stroke-width="1"/><path id="el2qpfgvb1ib14" d="M316.157000,253.255000C320.303000,253.255000,323.665000,249.895000,323.665000,245.747000C323.665000,241.599000,320.303000,238.239000,316.157000,238.239000L312.729000,238.239000C310.233000,238.239000,307.725000,238.404000,305.271000,238.731000C301.162000,239.278000,298.273000,243.052000,298.819000,247.164000C299.322000,250.938000,302.546000,253.683000,306.252000,253.683000C306.582000,253.683000,306.916000,253.662000,307.252000,253.617000C309.051000,253.378000,310.894000,253.257000,312.730000,253.257000L316.157000,253.257000L316.157000,253.255000Z" fill="rgb(0,0,0)" stroke="none" stroke-width="1"/><path id="el2qpfgvb1ib15" d="M291.336000,463.496000C291.324000,463.496000,291.313000,463.496000,291.301000,463.496000L281.385000,463.541000C277.239000,463.560000,273.893000,466.937000,273.911000,471.083000C273.930000,475.218000,277.288000,478.557000,281.418000,478.557000C281.430000,478.557000,281.442000,478.557000,281.453000,478.557000L291.369000,478.512000C295.515000,478.493000,298.861000,475.116000,298.843000,470.970000C298.825000,466.834000,295.466000,463.496000,291.336000,463.496000Z" fill="rgb(0,0,0)" stroke="none" stroke-width="1"/><path id="el2qpfgvb1ib16" d="M325.066000,350.505000C329.213000,350.505000,332.574000,347.144000,332.574000,342.997000C332.574000,338.850000,329.213000,335.489000,325.066000,335.489000L315.150000,335.489000C311.003000,335.489000,307.642000,338.849000,307.642000,342.997000C307.642000,347.144000,311.003000,350.505000,315.150000,350.505000L325.066000,350.505000Z" fill="rgb(0,0,0)" stroke="none" stroke-width="1"/><path id="el2qpfgvb1ib17" d="M268.826000,272.138000C270.151000,273.090000,271.682000,273.548000,273.200000,273.548000C275.535000,273.548000,277.837000,272.461000,279.304000,270.419000C280.934000,268.150000,282.802000,266.038000,284.855000,264.144000C287.903000,261.333000,288.094000,256.583000,285.283000,253.535000C282.472000,250.489000,277.724000,250.297000,274.674000,253.107000C271.875000,255.688000,269.329000,258.565000,267.107000,261.659000C264.689000,265.029000,265.459000,269.720000,268.826000,272.138000Z" fill="rgb(0,0,0)" stroke="none" stroke-width="1"/><path id="el2qpfgvb1ib18" d="M331.001000,463.314000C330.989000,463.314000,330.978000,463.314000,330.966000,463.314000L321.051000,463.359000C316.905000,463.378000,313.559000,466.755000,313.577000,470.901000C313.596000,475.036000,316.953000,478.375000,321.084000,478.375000C321.096000,478.375000,321.107000,478.375000,321.119000,478.375000L331.034000,478.330000C335.180000,478.312000,338.526000,474.934000,338.508000,470.788000C338.490000,466.653000,335.131000,463.314000,331.001000,463.314000Z" fill="rgb(0,0,0)" stroke="none" stroke-width="1"/><path id="el2qpfgvb1ib19" d="M251.670000,463.675000C251.658000,463.675000,251.647000,463.675000,251.635000,463.675000L241.719000,463.720000C237.573000,463.738000,234.227000,467.116000,234.245000,471.262000C234.264000,475.397000,237.621000,478.736000,241.752000,478.736000C241.764000,478.736000,241.775000,478.736000,241.787000,478.736000L251.703000,478.691000C255.849000,478.672000,259.195000,475.295000,259.177000,471.149000C259.159000,467.013000,255.802000,463.675000,251.670000,463.675000Z" fill="rgb(0,0,0)" stroke="none" stroke-width="1"/><path id="el2qpfgvb1ib20" d="M286.816000,343.037000C289.308000,343.037000,291.745000,341.798000,293.174000,339.533000C295.386000,336.026000,294.336000,331.390000,290.829000,329.177000C288.471000,327.689000,286.251000,325.951000,284.236000,324.014000C281.247000,321.139000,276.493000,321.234000,273.621000,324.220000C270.746000,327.208000,270.839000,331.961000,273.827000,334.835000C276.575000,337.478000,279.600000,339.847000,282.819000,341.877000C284.061000,342.663000,285.446000,343.037000,286.816000,343.037000Z" fill="rgb(0,0,0)" stroke="none" stroke-width="1"/><path id="el2qpfgvb1ib21" d="M272.372000,302.287000C271.868000,299.699000,271.612000,297.037000,271.612000,294.373000L271.614000,293.956000C271.663000,289.810000,268.341000,286.410000,264.194000,286.362000C264.165000,286.361000,264.135000,286.361000,264.105000,286.361000C259.999000,286.361000,256.647000,289.665000,256.599000,293.782000L256.596000,294.374000C256.596000,298,256.945000,301.629000,257.633000,305.160000C258.331000,308.745000,261.473000,311.232000,264.995000,311.232000C265.470000,311.232000,265.954000,311.187000,266.439000,311.092000C270.509000,310.299000,273.165000,306.357000,272.372000,302.287000Z" fill="rgb(0,0,0)" stroke="none" stroke-width="1"/><path id="el2qpfgvb1ib22" d="M364.732000,350.505000C368.879000,350.505000,372.240000,347.144000,372.240000,342.997000C372.240000,338.850000,368.879000,335.489000,364.732000,335.489000L354.816000,335.489000C350.669000,335.489000,347.308000,338.849000,347.308000,342.997000C347.308000,347.144000,350.669000,350.505000,354.816000,350.505000L364.732000,350.505000Z" fill="rgb(0,0,0)" stroke="none" stroke-width="1"/><path id="el2qpfgvb1ib23" d="M480.616000,364.176000C482.834000,364.176000,485.032000,363.196000,486.514000,361.320000C489.083000,358.066000,488.528000,353.344000,485.274000,350.775000C482.381000,348.492000,479.289000,346.417000,476.082000,344.613000C472.473000,342.577000,467.891000,343.856000,465.856000,347.469000C463.821000,351.081000,465.099000,355.661000,468.713000,357.695000C471.243000,359.121000,473.685000,360.758000,475.969000,362.561000C477.347000,363.650000,478.986000,364.176000,480.616000,364.176000Z" fill="rgb(0,0,0)" stroke="none" stroke-width="1"/><path id="el2qpfgvb1ib24" d="M448.940000,462.284000C446.481000,462.624000,443.963000,462.803000,441.452000,462.813000L440.047000,462.820000C435.900000,462.841000,432.555000,466.219000,432.575000,470.364000C432.596000,474.498000,435.953000,477.836000,440.082000,477.836000C440.095000,477.836000,440.107000,477.836000,440.119000,477.836000L441.521000,477.829000C444.692000,477.815000,447.880000,477.590000,450.995000,477.159000C455.102000,476.591000,457.972000,472.800000,457.405000,468.694000C456.835000,464.587000,453.039000,461.712000,448.940000,462.284000Z" fill="rgb(0,0,0)" stroke="none" stroke-width="1"/><path id="el2qpfgvb1ib25" d="M479.925000,447.323000C477.819000,449.330000,475.538000,451.188000,473.147000,452.846000C469.740000,455.208000,468.893000,459.886000,471.254000,463.295000C472.713000,465.398000,475.052000,466.526000,477.431000,466.526000C478.907000,466.526000,480.397000,466.092000,481.702000,465.188000C484.728000,463.089000,487.615000,460.737000,490.282000,458.196000C493.284000,455.336000,493.398000,450.583000,490.538000,447.582000C487.678000,444.577000,482.925000,444.462000,479.925000,447.323000Z" fill="rgb(0,0,0)" stroke="none" stroke-width="1"/><path id="el2qpfgvb1ib26" d="M505.151000,411.117000C501.083000,410.350000,497.152000,413.030000,496.384000,417.105000C495.845000,419.962000,495.079000,422.798000,494.104000,425.533000C492.712000,429.438000,494.748000,433.733000,498.655000,435.126000C499.488000,435.423000,500.340000,435.564000,501.176000,435.564000C504.260000,435.564000,507.152000,433.648000,508.248000,430.576000C509.485000,427.106000,510.458000,423.509000,511.141000,419.884000C511.907000,415.810000,509.226000,411.884000,505.151000,411.117000Z" fill="rgb(0,0,0)" stroke="none" stroke-width="1"/><path id="el2qpfgvb1ib27" d="M495.746000,372.970000C491.989000,374.724000,490.364000,379.191000,492.117000,382.949000C493.347000,385.584000,494.377000,388.336000,495.178000,391.125000C496.123000,394.418000,499.127000,396.564000,502.390000,396.564000C503.077000,396.564000,503.773000,396.469000,504.465000,396.271000C508.451000,395.127000,510.754000,390.968000,509.610000,386.983000C508.592000,383.438000,507.286000,379.946000,505.724000,376.599000C503.971000,372.842000,499.508000,371.218000,495.746000,372.970000Z" fill="rgb(0,0,0)" stroke="none" stroke-width="1"/><path id="el2qpfgvb1ib28" d="M404.398000,350.505000C408.545000,350.505000,411.906000,347.144000,411.906000,342.997000C411.906000,338.850000,408.545000,335.489000,404.398000,335.489000L394.482000,335.489000C390.335000,335.489000,386.974000,338.849000,386.974000,342.997000C386.974000,347.144000,390.335000,350.505000,394.482000,350.505000L404.398000,350.505000Z" fill="rgb(0,0,0)" stroke="none" stroke-width="1"/><path id="el2qpfgvb1ib29" d="M370.667000,463.134000C370.655000,463.134000,370.644000,463.134000,370.632000,463.134000L360.716000,463.179000C356.570000,463.198000,353.224000,466.575000,353.242000,470.721000C353.261000,474.856000,356.618000,478.195000,360.749000,478.195000C360.761000,478.195000,360.772000,478.195000,360.784000,478.195000L370.700000,478.150000C374.846000,478.131000,378.192000,474.754000,378.174000,470.608000C378.156000,466.473000,374.798000,463.134000,370.667000,463.134000Z" fill="rgb(0,0,0)" stroke="none" stroke-width="1"/><path id="el2qpfgvb1ib30" d="M441.198000,350.505000C442.047000,350.505000,442.891000,350.524000,443.730000,350.561000C443.843000,350.567000,443.956000,350.569000,444.068000,350.569000C448.061000,350.569000,451.385000,347.422000,451.562000,343.394000C451.746000,339.251000,448.537000,335.744000,444.395000,335.562000C443.332000,335.514000,442.257000,335.491000,441.199000,335.491000L434.148000,335.491000C430.001000,335.491000,426.640000,338.851000,426.640000,342.999000C426.640000,347.146000,430.001000,350.507000,434.148000,350.507000L441.198000,350.505000L441.198000,350.505000Z" fill="rgb(0,0,0)" stroke="none" stroke-width="1"/><path id="el2qpfgvb1ib31" d="M410.333000,462.955000C410.321000,462.955000,410.310000,462.955000,410.298000,462.955000L400.381000,463C396.235000,463.018000,392.889000,466.396000,392.907000,470.542000C392.925000,474.677000,396.283000,478.016000,400.414000,478.016000C400.426000,478.016000,400.437000,478.016000,400.449000,478.016000L410.365000,477.971000C414.511000,477.953000,417.857000,474.575000,417.839000,470.429000C417.821000,466.293000,414.463000,462.955000,410.333000,462.955000Z" fill="rgb(0,0,0)" stroke="none" stroke-width="1"/><script><![CDATA[!function(t,n){"object"==typeof exports&&"undefined"!=typeof module?module.exports=n():"function"==typeof define&&define.amd?define(n):(t=t||self).__SVGATOR_PLAYER__=n()}(this,(function(){"use strict";function t(n){return(t="function"==typeof Symbol&&"symbol"==typeof Symbol.iterator?function(t){return typeof t}:function(t){return t&&"function"==typeof Symbol&&t.constructor===Symbol&&t!==Symbol.prototype?"symbol":typeof t})(n)}function n(t,n){if(!(t instanceof n))throw new TypeError("Cannot call a class as a function")}function r(t,n){for(var r=0;r<n.length;r++){var e=n[r];e.enumerable=e.enumerable||!1,e.configurable=!0,"value"in e&&(e.writable=!0),Object.defineProperty(t,e.key,e)}}function e(t,n,e){return n&&r(t.prototype,n),e&&r(t,e),t}var i=Math.abs;function u(t){return t}function o(t,n,r){var e=1-r;return 3*r*e*(t*e+n*r)+r*r*r}function a(){var t=arguments.length>0&&void 0!==arguments[0]?arguments[0]:0,n=arguments.length>1&&void 0!==arguments[1]?arguments[1]:0,r=arguments.length>2&&void 0!==arguments[2]?arguments[2]:1,e=arguments.length>3&&void 0!==arguments[3]?arguments[3]:1;return t<0||t>1||r<0||r>1?null:i(t-n)<=1e-5&&i(r-e)<=1e-5?u:function(u){if(u<=0)return t>0?u*n/t:0===n&&r>0?u*e/r:0;if(u>=1)return r<1?1+(u-1)*(e-1)/(r-1):1===r&&t<1?1+(u-1)*(n-1)/(t-1):1;for(var a,l=0,f=1;l<f;){var s=o(t,r,a=(l+f)/2);if(i(u-s)<1e-5)break;s<u?l=a:f=a}return o(n,e,a)}}function l(){return 1}function f(t){return 1===t?1:0}function s(){var t=arguments.length>0&&void 0!==arguments[0]?arguments[0]:1,n=arguments.length>1&&void 0!==arguments[1]?arguments[1]:0;if(1===t){if(0===n)return f;if(1===n)return l}var r=1/t;return function(t){return t>=1?1:(t+=n*r)-t%r}}function c(t){var n=arguments.length>1&&void 0!==arguments[1]?arguments[1]:2;if(Number.isInteger(t))return t;var r=Math.pow(10,n);return Math.round(t*r)/r}var v=Math.PI/180;function h(t,n,r){return t>=.5?r:n}function y(t,n,r){return 0===t||n===r?n:t*(r-n)+n}function d(t,n,r){var e=y(t,n,r);return e<=0?0:e}function g(t,n,r){return 0===t?n:1===t?r:{x:y(t,n.x,r.x),y:y(t,n.y,r.y)}}function m(t,n,r){return 0===t?n:1===t?r:{x:d(t,n.x,r.x),y:d(t,n.y,r.y)}}function p(t,n,r){var e=function(t,n,r){return Math.round(y(t,n,r))}(t,n,r);return e<=0?0:e>=255?255:e}function b(t,n,r){return 0===t?n:1===t?r:{r:p(t,n.r,r.r),g:p(t,n.g,r.g),b:p(t,n.b,r.b),a:y(t,null==n.a?1:n.a,null==r.a?1:r.a)}}function w(t,n,r){if(0===t)return n;if(1===t)return r;var e=n.length;if(e!==r.length)return h(t,n,r);for(var i=[],u=0;u<e;u++)i.push(b(t,n[u],r[u]));return i}function A(t,n,r){var e=n.length;if(e!==r.length)return h(t,n,r);for(var i=new Array(e),u=0;u<e;u++)i[u]=y(t,n[u],r[u]);return i}function x(t,n){for(var r=[],e=0;e<t;e++)r.push(n);return r}function k(t,n){if(--n<=0)return t;var r=(t=Object.assign([],t)).length;do{for(var e=0;e<r;e++)t.push(t[e])}while(--n>0);return t}var S=/\.0+$/g;function _(t){return Number.isInteger(t)?t+"":t.toFixed(6).replace(S,"")}function M(t){var n=arguments.length>1&&void 0!==arguments[1]?arguments[1]:" ";return t&&t.length?t.map(_).join(n):""}function I(t){return _(t.x)+","+_(t.y)}function E(t){return t?null==t.a||t.a>=1?"rgb("+t.r+","+t.g+","+t.b+")":"rgba("+t.r+","+t.g+","+t.b+","+t.a+")":"transparent"}var F={f:null,i:m,u:function(t,n){return function(r){var e=n(r);t.setAttribute("rx",_(e.x)),t.setAttribute("ry",_(e.y))}}},B={f:null,i:function(t,n,r){return 0===t?n:1===t?r:{width:d(t,n.width,r.width),height:d(t,n.height,r.height)}},u:function(t,n){return function(r){var e=n(r);t.setAttribute("width",_(e.width)),t.setAttribute("height",_(e.height))}}},j=Math.sin,q=Math.cos,P=Math.acos,O=Math.asin,z=Math.tan,L=Math.atan2,C=Math.PI/180,R=180/Math.PI,T=Math.sqrt,V=function(){function t(){var r=arguments.length>0&&void 0!==arguments[0]?arguments[0]:1,e=arguments.length>1&&void 0!==arguments[1]?arguments[1]:0,i=arguments.length>2&&void 0!==arguments[2]?arguments[2]:0,u=arguments.length>3&&void 0!==arguments[3]?arguments[3]:1,o=arguments.length>4&&void 0!==arguments[4]?arguments[4]:0,a=arguments.length>5&&void 0!==arguments[5]?arguments[5]:0;n(this,t),this.m=[r,e,i,u,o,a],this.i=null,this.w=null,this.s=null}return e(t,[{key:"point",value:function(t,n){var r=this.m;return{x:r[0]*t+r[2]*n+r[4],y:r[1]*t+r[3]*n+r[5]}}},{key:"translateSelf",value:function(){var t=arguments.length>0&&void 0!==arguments[0]?arguments[0]:0,n=arguments.length>1&&void 0!==arguments[1]?arguments[1]:0;if(!t&&!n)return this;var r=this.m;return r[4]+=r[0]*t+r[2]*n,r[5]+=r[1]*t+r[3]*n,this.w=this.s=this.i=null,this}},{key:"rotateSelf",value:function(){var t=arguments.length>0&&void 0!==arguments[0]?arguments[0]:0;if(t%=360){var n=j(t*=C),r=q(t),e=this.m,i=e[0],u=e[1];e[0]=i*r+e[2]*n,e[1]=u*r+e[3]*n,e[2]=e[2]*r-i*n,e[3]=e[3]*r-u*n,this.w=this.s=this.i=null}return this}},{key:"scaleSelf",value:function(){var t=arguments.length>0&&void 0!==arguments[0]?arguments[0]:1,n=arguments.length>1&&void 0!==arguments[1]?arguments[1]:1;if(1!==t||1!==n){var r=this.m;r[0]*=t,r[1]*=t,r[2]*=n,r[3]*=n,this.w=this.s=this.i=null}return this}},{key:"skewSelf",value:function(t,n){if(n%=360,(t%=360)||n){var r=this.m,e=r[0],i=r[1],u=r[2],o=r[3];t&&(t=z(t*C),r[2]+=e*t,r[3]+=i*t),n&&(n=z(n*C),r[0]+=u*n,r[1]+=o*n),this.w=this.s=this.i=null}return this}},{key:"resetSelf",value:function(){var t=arguments.length>0&&void 0!==arguments[0]?arguments[0]:1,n=arguments.length>1&&void 0!==arguments[1]?arguments[1]:0,r=arguments.length>2&&void 0!==arguments[2]?arguments[2]:0,e=arguments.length>3&&void 0!==arguments[3]?arguments[3]:1,i=arguments.length>4&&void 0!==arguments[4]?arguments[4]:0,u=arguments.length>5&&void 0!==arguments[5]?arguments[5]:0,o=this.m;return o[0]=t,o[1]=n,o[2]=r,o[3]=e,o[4]=i,o[5]=u,this.w=this.s=this.i=null,this}},{key:"recomposeSelf",value:function(){var t=arguments.length>0&&void 0!==arguments[0]?arguments[0]:null,n=arguments.length>1&&void 0!==arguments[1]?arguments[1]:null,r=arguments.length>2&&void 0!==arguments[2]?arguments[2]:null,e=arguments.length>3&&void 0!==arguments[3]?arguments[3]:null,i=arguments.length>4&&void 0!==arguments[4]?arguments[4]:null;return this.isIdentity||this.resetSelf(),t&&(t.x||t.y)&&this.translateSelf(t.x,t.y),n&&this.rotateSelf(n),r&&(r.x&&this.skewSelf(r.x,0),r.y&&this.skewSelf(0,r.y)),!e||1===e.x&&1===e.y||this.scaleSelf(e.x,e.y),i&&(i.x||i.y)&&this.translateSelf(i.x,i.y),this}},{key:"decompose",value:function(){var t=arguments.length>0&&void 0!==arguments[0]?arguments[0]:0,n=arguments.length>1&&void 0!==arguments[1]?arguments[1]:0,r=this.m,e=r[0]*r[0]+r[1]*r[1],i=[[r[0],r[1]],[r[2],r[3]]],u=T(e);if(0===u)return{origin:{x:r[4],y:r[5]},translate:{x:t,y:n},scale:{x:0,y:0},skew:{x:0,y:0},rotate:0};i[0][0]/=u,i[0][1]/=u;var o=r[0]*r[3]-r[1]*r[2]<0;o&&(u=-u);var a=i[0][0]*i[1][0]+i[0][1]*i[1][1];i[1][0]-=i[0][0]*a,i[1][1]-=i[0][1]*a;var l=T(i[1][0]*i[1][0]+i[1][1]*i[1][1]);if(0===l)return{origin:{x:r[4],y:r[5]},translate:{x:t,y:n},scale:{x:u,y:0},skew:{x:0,y:0},rotate:0};i[1][0]/=l,i[1][1]/=l,a/=l;var f=0;return i[1][1]<0?(f=P(i[1][1])*R,i[0][1]<0&&(f=360-f)):f=O(i[0][1])*R,o&&(f=-f),a=L(a,T(i[0][0]*i[0][0]+i[0][1]*i[0][1]))*R,{origin:{x:r[4],y:r[5]},translate:{x:t,y:n},scale:{x:u,y:l},skew:{x:a,y:0},rotate:f}}},{key:"toString",value:function(){return null===this.s&&(this.s="matrix("+this.m.map(N).join(" ")+")"),this.s}},{key:"determinant",get:function(){var t=this.m;return t[0]*t[3]-t[1]*t[2]}},{key:"isIdentity",get:function(){if(null===this.i){var t=this.m;this.i=1===t[0]&&0===t[1]&&0===t[2]&&1===t[3]&&0===t[4]&&0===t[5]}return this.i}}]),t}(),D=/\.0+$/;function N(t){return Number.isInteger(t)?t:t.toFixed(14).replace(D,"")}Object.freeze({M:2,L:2,Z:0,H:1,V:1,C:6,Q:4,T:2,S:4,A:7});function G(t,n,r){return t+(n-t)*r}function $(t,n,r){var e=arguments.length>3&&void 0!==arguments[3]&&arguments[3],i={x:G(t.x,n.x,r),y:G(t.y,n.y,r)};return e&&(i.a=H(t,n)),i}function H(t,n){return Math.atan2(n.y-t.y,n.x-t.x)}function Q(t,n,r,e){var i=1-e;return i*i*t+2*i*e*n+e*e*r}function U(t,n,r,e){return 2*(1-e)*(n-t)+2*e*(r-n)}function Y(t,n,r,e){var i=arguments.length>4&&void 0!==arguments[4]&&arguments[4],u={x:Q(t.x,n.x,r.x,e),y:Q(t.y,n.y,r.y,e)};return i&&(u.a=Z(t,n,r,e)),u}function Z(t,n,r,e){return Math.atan2(U(t.y,n.y,r.y,e),U(t.x,n.x,r.x,e))}function J(t,n,r,e,i){var u=i*i;return i*u*(e-t+3*(n-r))+3*u*(t+r-2*n)+3*i*(n-t)+t}function K(t,n,r,e,i){var u=1-i;return 3*(u*u*(n-t)+2*u*i*(r-n)+i*i*(e-r))}function W(t,n,r,e,i){var u=arguments.length>5&&void 0!==arguments[5]&&arguments[5],o={x:J(t.x,n.x,r.x,e.x,i),y:J(t.y,n.y,r.y,e.y,i)};return u&&(o.a=X(t,n,r,e,i)),o}function X(t,n,r,e,i){return Math.atan2(K(t.y,n.y,r.y,e.y,i),K(t.x,n.x,r.x,e.x,i))}function tt(t,n,r){var e=arguments.length>3&&void 0!==arguments[3]&&arguments[3];if(rt(n)){if(et(r))return Y(n,r.start,r,t,e)}else if(rt(r)){if(n.end)return Y(n,n.end,r,t,e)}else{if(n.end)return r.start?W(n,n.end,r.start,r,t,e):Y(n,n.end,r,t,e);if(r.start)return Y(n,r.start,r,t,e)}return $(n,r,t,e)}function nt(t,n,r){var e=tt(t,n,r,!0);return e.a=function(t){var n=arguments.length>1&&void 0!==arguments[1]&&arguments[1];return n?t+Math.PI:t}(e.a)/v,e}function rt(t){return!t.type||"corner"===t.type}function et(t){return null!=t.start&&!rt(t)}var it=new V;var ut={f:function(t){return t?t.join(" "):""},i:function(n,r,e){if(0===n)return r;if(1===n)return e;var i=r.length;if(i!==e.length)return h(n,r,e);for(var u,o=new Array(i),a=0;a<i;a++){if((u=t(r[a]))!==t(e[a]))return h(n,r,e);if("number"===u)o[a]=y(n,r[a],e[a]);else{if(r[a]!==e[a])return h(n,r,e);o[a]=r[a]}}return o}},ot={f:null,i:A,u:function(t,n){return function(r){var e=n(r);t.setAttribute("x1",_(e[0])),t.setAttribute("y1",_(e[1])),t.setAttribute("x2",_(e[2])),t.setAttribute("y2",_(e[3]))}}},at={f:_,i:y},lt={f:_,i:function(t,n,r){var e=y(t,n,r);return e<=0?0:e>=1?1:e}},ft={f:M,i:function(t,n,r){var e,i,u,o=n.length,a=r.length;if(o!==a)if(0===o)n=x(o=a,0);else if(0===a)a=o,r=x(o,0);else{var l=(u=(e=o)*(i=a)/function(t,n){for(var r;n;)r=n,n=t%n,t=r;return t||1}(e,i))<0?-u:u;n=k(n,Math.floor(l/o)),r=k(r,Math.floor(l/a)),o=a=l}for(var f=[],s=0;s<o;s++)f.push(c(d(t,n[s],r[s]),6));return f}};function st(t,n,r,e,i,u,o,a){return n=function(t,n,r){for(var e,i,u,o=t.length-1,a={},l=0;l<=o;l++)(e=t[l]).e&&(e.e=n(e.e)),e.v&&"g"===(i=e.v).t&&i.r&&(u=r.getElementById(i.r))&&(a[i.r]=u.querySelectorAll("stop"));return a}(t,e,a),function(e){var i,u=r(e,t,ct);return u?"c"===u.t?E(u.v):"g"===u.t?(n[u.r]&&function(t,n){for(var r=0,e=t.length;r<e;r++)t[r].setAttribute("stop-color",E(n[r]))}(n[u.r],u.v),(i=u.r)?"url(#"+i+")":"none"):"none":"none"}}function ct(t,n,r){if(0===t)return n;if(1===t)return r;if(n&&r){var e=n.t;if(e===r.t)switch(n.t){case"c":return{t:e,v:b(t,n.v,r.v)};case"g":if(n.r===r.r)return{t:e,v:w(t,n.v,r.v),r:n.r}}}return h(t,n,r)}var vt={blur:m,brightness:d,contrast:d,"drop-shadow":function(t,n,r){return 0===t?n:1===t?r:{blur:m(t,n.blur,r.blur),offset:g(t,n.offset,r.offset),color:b(t,n.color,r.color)}},grayscale:d,"hue-rotate":y,invert:d,opacity:d,saturate:d,sepia:d};function ht(t,n,r){if(0===t)return n;if(1===t)return r;var e=n.length;if(e!==r.length)return h(t,n,r);for(var i,u=[],o=0;o<e;o++){if(n[o].type!==r[o].type)return n;if(!(i=vt[n[o].type]))return h(t,n,r);u.push({type:n.type,value:i(t,n[o].value,r[o].value)})}return u}var yt={blur:function(t){return t?function(n){t.setAttribute("stdDeviation",I(n))}:null},brightness:function(t,n,r){return(t=gt(r,n))?function(n){n=_(n),t.map((function(t){return t.setAttribute("slope",n)}))}:null},contrast:function(t,n,r){return(t=gt(r,n))?function(n){var r=_((1-n)/2);n=_(n),t.map((function(t){t.setAttribute("slope",n),t.setAttribute("intercept",r)}))}:null},"drop-shadow":function(t,n,r){var e=r.getElementById(n+"-blur");if(!e)return null;var i=r.getElementById(n+"-offset");if(!i)return null;var u=r.getElementById(n+"-flood");return u?function(t){e.setAttribute("stdDeviation",I(t.blur)),i.setAttribute("dx",_(t.offset.x)),i.setAttribute("dy",_(t.offset.y)),u.setAttribute("flood-color",E(t.color))}:null},grayscale:function(t){return t?function(n){t.setAttribute("values",M(function(t){return[.2126+.7874*(t=1-t),.7152-.7152*t,.0722-.0722*t,0,0,.2126-.2126*t,.7152+.2848*t,.0722-.0722*t,0,0,.2126-.2126*t,.7152-.7152*t,.0722+.9278*t,0,0,0,0,0,1,0]}(n)))}:null},"hue-rotate":function(t){return t?function(n){return t.setAttribute("values",_(n))}:null},invert:function(t,n,r){return(t=gt(r,n))?function(n){n=_(n)+" "+_(1-n),t.map((function(t){return t.setAttribute("tableValues",n)}))}:null},opacity:function(t,n,r){return(t=r.getElementById(n+"-A"))?function(n){return t.setAttribute("tableValues","0 "+_(n))}:null},saturate:function(t){return t?function(n){return t.setAttribute("values",_(n))}:null},sepia:function(t){return t?function(n){return t.setAttribute("values",M(function(t){return[.393+.607*(t=1-t),.769-.769*t,.189-.189*t,0,0,.349-.349*t,.686+.314*t,.168-.168*t,0,0,.272-.272*t,.534-.534*t,.131+.869*t,0,0,0,0,0,1,0]}(n)))}:null}};var dt=["R","G","B"];function gt(t,n){var r=dt.map((function(r){return t.getElementById(n+"-"+r)||null}));return-1!==r.indexOf(null)?null:r}var mt={fill:st,"fill-opacity":lt,stroke:st,"stroke-opacity":lt,"stroke-width":at,"stroke-dashoffset":{f:_,i:y},"stroke-dasharray":ft,opacity:lt,transform:function(n,r,e,i){if(!(n=function(n,r){if(!n||"object"!==t(n))return null;var e=!1;for(var i in n)n.hasOwnProperty(i)&&(n[i]&&n[i].length?(n[i].forEach((function(t){t.e&&(t.e=r(t.e))})),e=!0):delete n[i]);return e?n:null}(n,i)))return null;var u=function(t,i,u){var o=arguments.length>3&&void 0!==arguments[3]?arguments[3]:null;return n[t]?e(i,n[t],u):r&&r[t]?r[t]:o};return r&&r.a&&n.o?function(t){var r=e(t,n.o,nt);return it.recomposeSelf(r,u("r",t,y,0)+r.a,u("k",t,g),u("s",t,g),u("t",t,g)).toString()}:function(t){return it.recomposeSelf(u("o",t,tt,null),u("r",t,y,0),u("k",t,g),u("s",t,g),u("t",t,g)).toString()}},"#filter":function(t,n,r,e,i,u,o,a){if(!n.items||!t||!t.length)return null;var l=function(t,n){var r=(t=t.map((function(t){return t&&yt[t[0]]?(n.getElementById(t[1]),yt[t[0]](n.getElementById(t[1]),t[1],n)):null}))).length;return function(n){for(var e=0;e<r;e++)t[e]&&t[e](n[e].value)}}(n.items,a);return l?(t=function(t,n){return t.map((function(t){return t.e=n(t.e),t}))}(t,e),function(n){l(r(n,t,ht))}):null},"#line":ot,points:{f:M,i:A},d:ut,r:at,"#size":B,"#radius":F,_:function(t,n){if(Array.isArray(t))for(var r=0;r<t.length;r++)this[t[r]]=n;else this[t]=n}},pt=function(){function t(r){n(this,t),this.list=r,this.length=r.length}return e(t,[{key:"setAttribute",value:function(t,n){for(var r=this.list,e=0;e<this.length;e++)r[e].setAttribute(t,n)}},{key:"removeAttribute",value:function(t){for(var n=this.list,r=0;r<this.length;r++)n[r].removeAttribute(t)}},{key:"style",value:function(t,n){for(var r=this.list,e=0;e<this.length;e++)r[e].style[t]=n}}]),t}(),bt=/-./g,wt=function(t,n){return n.toUpperCase()};function At(t){return"function"==typeof t?t:h}function xt(t){return t?"function"==typeof t?t:Array.isArray(t)?function(t){var n=arguments.length>1&&void 0!==arguments[1]?arguments[1]:u;if(!Array.isArray(t))return n;switch(t.length){case 1:return s(t[0])||n;case 2:return s(t[0],t[1])||n;case 4:return a(t[0],t[1],t[2],t[3])||n}return n}(t,null):function(t,n){var r=arguments.length>2&&void 0!==arguments[2]?arguments[2]:u;switch(t){case"linear":return u;case"steps":return s(n.steps||1,n.jump||0)||r;case"bezier":case"cubic-bezier":return a(n.x1||0,n.y1||0,n.x2||0,n.y2||0)||r}return r}(t.type,t.value,null):null}function kt(t,n,r){var e=arguments.length>3&&void 0!==arguments[3]&&arguments[3],i=n.length-1;if(t<=n[0].t)return e?[0,0,n[0].v]:n[0].v;if(t>=n[i].t)return e?[i,1,n[i].v]:n[i].v;var u,o=n[0],a=null;for(u=1;u<=i;u++){if(!(t>n[u].t)){a=n[u];break}o=n[u]}return null==a?e?[i,1,n[i].v]:n[i].v:o.t===a.t?e?[u,1,a.v]:a.v:(t=(t-o.t)/(a.t-o.t),o.e&&(t=o.e(t)),e?[u,t,r(t,o.v,a.v)]:r(t,o.v,a.v))}function St(t,n){var r=arguments.length>2&&void 0!==arguments[2]?arguments[2]:null;return t&&t.length?"function"!=typeof n?null:("function"!=typeof r&&(r=null),function(e){var i=kt(e,t,n);return null!=i&&r&&(i=r(i)),i}):null}function _t(t,n){return t.t-n.t}function Mt(n,r,e,i,u){var o,a="@"===e[0],l="#"===e[0],f=mt[e],s=h;switch(a?(o=e.substr(1),e=o.replace(bt,wt)):l&&(e=e.substr(1)),t(f)){case"function":if(s=f(i,u,kt,xt,e,a,r,n),l)return s;break;case"string":s=St(i,At(f));break;case"object":if((s=St(i,At(f.i),f.f))&&"function"==typeof f.u)return f.u(r,s,e,a,n)}return s?function(t,n,r){var e=arguments.length>3&&void 0!==arguments[3]&&arguments[3];if(e)return t instanceof pt?function(e){return t.style(n,r(e))}:function(e){return t.style[n]=r(e)};if(Array.isArray(n)){var i=n.length;return function(e){var u=r(e);if(null==u)for(var o=0;o<i;o++)t[o].removeAttribute(n);else for(var a=0;a<i;a++)t[a].setAttribute(n,u)}}return function(e){var i=r(e);null==i?t.removeAttribute(n):t.setAttribute(n,i)}}(r,e,s,a):null}function It(n,r,e,i){if(!i||"object"!==t(i))return null;var u=null,o=null;return Array.isArray(i)?o=function(t){if(!t||!t.length)return null;for(var n=0;n<t.length;n++)t[n].e&&(t[n].e=xt(t[n].e));return t.sort(_t)}(i):(o=i.keys,u=i.data||null),o?Mt(n,r,e,o,u):null}function Et(t,n,r){if(!r)return null;var e=[];for(var i in r)if(r.hasOwnProperty(i)){var u=It(t,n,i,r[i]);u&&e.push(u)}return e.length?e:null}function Ft(t,n){if(!n.duration||n.duration<0)return null;var r=function(t,n){if(!n)return null;var r=[];if(Array.isArray(n))for(var e=n.length,i=0;i<e;i++){var u=n[i];if(2===u.length){var o=null;if("string"==typeof u[0])o=t.getElementById(u[0]);else if(Array.isArray(u[0])){o=[];for(var a=0;a<u[0].length;a++)if("string"==typeof u[0][a]){var l=t.getElementById(u[0][a]);l&&o.push(l)}o=o.length?1===o.length?o[0]:new pt(o):null}if(o){var f=Et(t,o,u[1]);f&&(r=r.concat(f))}}}else for(var s in n)if(n.hasOwnProperty(s)){var c=t.getElementById(s);if(c){var v=Et(t,c,n[s]);v&&(r=r.concat(v))}}return r.length?r:null}(t,n.elements);return r?function(t,n){var r=arguments.length>2&&void 0!==arguments[2]?arguments[2]:1/0,e=arguments.length>3&&void 0!==arguments[3]?arguments[3]:1,i=arguments.length>4&&void 0!==arguments[4]&&arguments[4],u=arguments.length>5&&void 0!==arguments[5]?arguments[5]:1,o=t.length,a=e>0?n:0;i&&r%2==0&&(a=n-a);var l=null;return function(f,s){var c=f%n,v=1+(f-c)/n;s*=e,i&&v%2==0&&(s=-s);var h=!1;if(v>r)c=a,h=!0,-1===u&&(c=e>0?0:n);else if(s<0&&(c=n-c),c===l)return!1;l=c;for(var y=0;y<o;y++)t[y](c);return h}}(r,n.duration,n.iterations||1/0,n.direction||1,!!n.alternate,n.fill||1):null}var Bt=function(){function t(r){var e=arguments.length>1&&void 0!==arguments[1]?arguments[1]:{};n(this,t),this._id=0,this._running=!1,this._animations=r,this.direction=e.direction||1,this.speed=e.speed||1,this.fps=e.fps||100,this.offset=e.offset||0}return e(t,[{key:"_start",value:function(){var t=this,n=arguments.length>0&&void 0!==arguments[0]?arguments[0]:0,r=-1/0,e=null,i={},u=function u(o){t._running=!0,null==e&&(e=o);var a=Math.round((o-e+n)*t.speed),l=t.fps?1e3/t.fps:0;if(a>r+l){t.offset=a,r=a;for(var f=t._animations,s=f.length,c=0,v=0;v<s;v++)i[v]?c++:(i[v]=f[v](a,t.direction),i[v]&&c++);if(c===s)return void t._stop()}t._id=window.requestAnimationFrame(u)};this._id=window.requestAnimationFrame(u)}},{key:"_stop",value:function(){this._id&&window.cancelAnimationFrame(this._id),this._running=!1}},{key:"play",value:function(){this._running||this._start(this.offset)}},{key:"stop",value:function(){this._stop(),this.offset=0;var t=this.direction,n=this._animations;requestAnimationFrame((function(){for(var r=0;r<n.length;r++)n[r](0,t)}))}},{key:"restart",value:function(){this._stop(),this.offset=0,this._start()}},{key:"pause",value:function(){this._stop()}},{key:"reverse",value:function(){this.direction=-this.direction}}],[{key:"build",value:function(n){if(!(n=function(t){if(!t||!t.root||!Array.isArray(t.animations))return null;var n=window.document.getElementById(t.root);if(!n)return null;var r=t.animations.map((function(t){return Ft(n,t)})).filter((function(t){return!!t}));return r.length?{element:n,animations:r,options:t.options||void 0}:null}(n)))return null;var r=n.element,e=n.options||{},i=new t(n.animations,n.options);return function(t,n,r){var e=arguments.length>3&&void 0!==arguments[3]?arguments[3]:null;if("click"===r){var i=function r(){n.removeEventListener("click",r),t.play()};return void n.addEventListener("click",i)}if("hover"===r)return n.addEventListener("mouseenter",(function(){return t.play()})),void n.addEventListener("mouseleave","freeze"===e?function(){return t.pause()}:function(){return t.stop()});t.play()}(i,r,e.start,e.hover),i}}]),t}();return function(){for(var t=0,n=["ms","moz","webkit","o"],r=0;r<n.length&&!window.requestAnimationFrame;++r)window.requestAnimationFrame=window[n[r]+"RequestAnimationFrame"],window.cancelAnimationFrame=window[n[r]+"CancelAnimationFrame"]||window[n[r]+"CancelRequestAnimationFrame"];window.requestAnimationFrame||(window.requestAnimationFrame=function(n){var r=Date.now(),e=Math.max(0,16-(r-t)),i=window.setTimeout((function(){n(r+e)}),e);return t=r+e,i},window.cancelAnimationFrame=window.clearTimeout)}(),Bt}));
__SVGATOR_PLAYER__.build({"root":"el2qpfgvb1ib1","animations":[{"duration":3700,"direction":-1,"iterations":0,"fill":1,"alternate":true,"elements":{"el2qpfgvb1ib17":{"opacity":[{"t":3200,"v":0.5},{"t":3600,"v":1}]},"el2qpfgvb1ib18":{"opacity":[{"t":400,"v":0.5},{"t":800,"v":1}]},"el2qpfgvb1ib19":{"opacity":[{"t":0,"v":0.5},{"t":400,"v":1}]},"el2qpfgvb1ib20":{"opacity":[{"t":2800,"v":0.5},{"t":3200,"v":1}]},"el2qpfgvb1ib22":{"opacity":[{"t":2400,"v":0.5},{"t":2800,"v":1}]},"el2qpfgvb1ib25":{"opacity":[{"t":1200,"v":0.5},{"t":1600,"v":1}]},"el2qpfgvb1ib27":{"opacity":[{"t":1600,"v":0.5},{"t":2000,"v":1}]},"el2qpfgvb1ib30":{"opacity":[{"t":2000,"v":0.5},{"t":2400,"v":1}]},"el2qpfgvb1ib31":{"opacity":[{"t":800,"v":0.5},{"t":1200,"v":1}]}}}],"options":{"start":"load","hover":"freeze"}})]]></script></svg>