<svg id="eqb88zsp7fbk1" xmlns="http://www.w3.org/2000/svg" xmlns:xlink="http://www.w3.org/1999/xlink" viewBox="0 0 512 512" shape-rendering="geometricPrecision" text-rendering="geometricPrecision"><defs><linearGradient id="eqb88zsp7fbk4-fill" x1="162.196000" y1="208.063000" x2="412.196000" y2="312.063000" spreadMethod="pad" gradientUnits="userSpaceOnUse"><stop id="eqb88zsp7fbk4-fill-0" offset="0%" stop-color="rgb(198,209,255)"/><stop id="eqb88zsp7fbk4-fill-1" offset="58.340000%" stop-color="rgb(230,213,244)"/><stop id="eqb88zsp7fbk4-fill-2" offset="99.700000%" stop-color="rgb(255,217,236)"/></linearGradient></defs><g id="eqb88zsp7fbk2"><g id="eqb88zsp7fbk3"><path id="eqb88zsp7fbk4" d="M330.117000,0.425000C234.300000,9.077000,225.027000,192.853000,183.701000,287.012000C163.223000,333.670000,114.929000,381.806000,123.443000,436.794000C133.048000,498.829000,196.340000,516.869000,245.126000,510.934000C365.849000,496.249000,418.025000,369.881000,425.923000,250.133000C430.793000,176.304000,446.224000,-10.059000,330.117000,0.425000Z" fill="url(#eqb88zsp7fbk4-fill)" stroke="none" stroke-width="1"/></g><g id="eqb88zsp7fbk5"><path id="eqb88zsp7fbk6" d="M394.885000,190.449000C394.885000,164.373000,377.527000,142.363000,353.740000,135.310000L353.740000,104.790000C353.740000,93.750000,344.780000,84.790000,333.740000,84.790000L151.760000,84.790000C140.720000,84.790000,131.760000,93.750000,131.760000,104.790000L131.760000,457.210000C131.760000,468.250000,140.720000,477.210000,151.760000,477.210000L333.740000,477.210000C344.780000,477.210000,353.740000,468.250000,353.740000,457.210000L353.740000,245.587000C377.528000,238.534000,394.885000,216.524000,394.885000,190.449000Z" opacity="0.1" fill="rgb(38,38,188)" stroke="none" stroke-width="1"/><g id="eqb88zsp7fbk7"><g id="eqb88zsp7fbk8"><path id="eqb88zsp7fbk9" d="M353.741000,79.790000L353.741000,432.210000C353.741000,443.250000,344.781000,452.210000,333.741000,452.210000L151.761000,452.210000C140.721000,452.210000,131.761000,443.250000,131.761000,432.210000L131.761000,79.790000C131.761000,68.750000,140.721000,59.790000,151.761000,59.790000L333.741000,59.790000C344.781000,59.790000,353.741000,68.750000,353.741000,79.790000Z" fill="rgb(255,168,207)" stroke="none" stroke-width="1"/><path id="eqb88zsp7fbk10" d="M353.741000,132.316000L353.741000,242.606000C348.551000,244.146000,343.061000,244.976000,337.371000,244.976000C305.601000,244.976000,279.851000,219.226000,279.851000,187.456000C279.851000,155.696000,305.601000,129.946000,337.371000,129.946000C343.061000,129.946000,348.551000,130.776000,353.741000,132.316000Z" fill="rgb(255,126,184)" stroke="none" stroke-width="1"/><path id="eqb88zsp7fbk11" d="M131.761000,258.577000L131.761000,432.210000C131.761000,443.250000,140.721000,452.210000,151.761000,452.210000L333.741000,452.210000C344.781000,452.210000,353.741000,443.250000,353.741000,432.210000L353.741000,258.577000Z" fill="rgb(255,126,184)" stroke="none" stroke-width="1"/><path id="eqb88zsp7fbk12" d="M131.761000,258.577000L353.741000,258.577000L353.741000,274.282000L131.761000,274.282000Z" fill="rgb(255,91,168)" stroke="none" stroke-width="1"/><g id="eqb88zsp7fbk13"><path id="eqb88zsp7fbk14" d="M288.234000,88.826000L197.267000,88.826000C192.999000,88.826000,189.202000,86.118000,187.812000,82.083000L180.135000,59.793000L305.367000,59.793000L297.690000,82.083000C296.300000,86.117000,292.502000,88.826000,288.234000,88.826000Z" fill="rgb(255,219,237)" stroke="none" stroke-width="1"/><path id="eqb88zsp7fbk15" d="M197.267000,423.174000L288.234000,423.174000C292.502000,423.174000,296.299000,425.882000,297.689000,429.917000L305.366000,452.207000L180.135000,452.207000L187.812000,429.917000C189.202000,425.883000,192.999000,423.174000,197.267000,423.174000Z" fill="rgb(255,219,237)" stroke="none" stroke-width="1"/></g></g><path id="eqb88zsp7fbk16" d="M396.243000,85.206000C394.963000,85.206000,393.684000,84.718000,392.707000,83.741000L386.743000,77.777000L380.779000,83.741000C378.826000,85.694000,375.661000,85.694000,373.708000,83.741000C371.755000,81.789000,371.755000,78.623000,373.708000,76.671000L383.208000,67.171000C385.161000,65.218000,388.326000,65.218000,390.279000,67.171000L399.779000,76.671000C401.732000,78.623000,401.732000,81.789000,399.779000,83.741000C398.802000,84.718000,397.523000,85.206000,396.243000,85.206000Z" fill="rgb(101,131,254)" stroke="none" stroke-width="1"/><path id="eqb88zsp7fbk17" d="M110.758000,180.854000C109.478000,180.854000,108.199000,180.366000,107.222000,179.389000L101.258000,173.425000L95.294000,179.389000C93.341000,181.342000,90.176000,181.342000,88.223000,179.389000C86.270000,177.437000,86.270000,174.271000,88.223000,172.319000L97.723000,162.819000C99.676000,160.866000,102.841000,160.866000,104.794000,162.819000L114.294000,172.319000C116.247000,174.271000,116.247000,177.437000,114.294000,179.389000C113.317000,180.365000,112.037000,180.854000,110.758000,180.854000Z" fill="rgb(101,131,254)" stroke="none" stroke-width="1"/><path id="eqb88zsp7fbk18" d="M96.757000,411.703000C93.044000,411.703000,89.331000,410.290000,86.504000,407.463000C80.850000,401.810000,80.850000,392.610000,86.504000,386.957000C92.157000,381.302000,101.357000,381.303000,107.010000,386.957000C112.664000,392.610000,112.664000,401.810000,107.010000,407.463000C104.184000,410.290000,100.470000,411.703000,96.757000,411.703000ZM96.758000,392.712000C95.605000,392.712000,94.453000,393.150000,93.576000,394.027000C91.821000,395.782000,91.821000,398.637000,93.576000,400.392000C95.329000,402.146000,98.185000,402.146000,99.940000,400.392000C101.695000,398.637000,101.695000,395.782000,99.940000,394.027000C99.062000,393.150000,97.910000,392.712000,96.758000,392.712000Z" fill="rgb(0,236,162)" stroke="none" stroke-width="1"/></g><g id="eqb88zsp7fbk19"><path id="eqb88zsp7fbk20" d="M226.637000,390.657000L167.053000,390.657000C164.292000,390.657000,162.053000,388.418000,162.053000,385.657000L162.053000,368.369000C162.053000,365.608000,164.292000,363.369000,167.053000,363.369000L226.637000,363.369000C229.398000,363.369000,231.637000,365.608000,231.637000,368.369000L231.637000,385.657000C231.637000,388.419000,229.398000,390.657000,226.637000,390.657000Z" fill="rgb(254,44,143)" stroke="none" stroke-width="1"/><path id="eqb88zsp7fbk21" d="M318.449000,390.657000L258.865000,390.657000C256.104000,390.657000,253.865000,388.418000,253.865000,385.657000L253.865000,368.369000C253.865000,365.608000,256.104000,363.369000,258.865000,363.369000L318.449000,363.369000C321.210000,363.369000,323.449000,365.608000,323.449000,368.369000L323.449000,385.657000C323.449000,388.419000,321.210000,390.657000,318.449000,390.657000Z" fill="rgb(1,236,165)" stroke="none" stroke-width="1"/></g><g id="eqb88zsp7fbk22"><g id="eqb88zsp7fbk23"><path id="eqb88zsp7fbk24" d="M318.052000,292.623000L276.649000,292.623000C273.888000,292.623000,271.649000,290.384000,271.649000,287.623000C271.649000,284.862000,273.888000,282.623000,276.649000,282.623000L318.052000,282.623000C320.813000,282.623000,323.052000,284.862000,323.052000,287.623000C323.052000,290.384000,320.814000,292.623000,318.052000,292.623000Z" fill="rgb(1,236,165)" stroke="none" stroke-width="1"/></g><g id="eqb88zsp7fbk25"><path id="eqb88zsp7fbk26" d="M317.932000,320.884000L167.449000,320.884000C164.688000,320.884000,162.449000,318.645000,162.449000,315.884000C162.449000,313.123000,164.688000,310.884000,167.449000,310.884000L317.932000,310.884000C320.693000,310.884000,322.932000,313.123000,322.932000,315.884000C322.932000,318.645000,320.693000,320.884000,317.932000,320.884000Z" transform="matrix(1 0 0 1 -200 0)" fill="rgb(255,255,255)" stroke="none" stroke-width="1"/></g><g id="eqb88zsp7fbk27"><path id="eqb88zsp7fbk28" d="M318.052000,339.387000L167.570000,339.387000C164.809000,339.387000,162.570000,337.148000,162.570000,334.387000C162.570000,331.626000,164.809000,329.387000,167.570000,329.387000L318.053000,329.387000C320.814000,329.387000,323.053000,331.626000,323.053000,334.387000C323.053000,337.148000,320.814000,339.387000,318.052000,339.387000Z" transform="matrix(1 0 0 1 200 0)" fill="rgb(255,255,255)" stroke="none" stroke-width="1"/></g></g><g id="eqb88zsp7fbk29"><path id="eqb88zsp7fbk30" d="M207.361000,126.630000C204.600000,126.630000,202.361000,128.868000,202.361000,131.630000L202.361000,151.026000C202.361000,154.985000,200.150000,158.438000,196.898000,160.214000L196.898000,131.630000C196.898000,128.868000,194.659000,126.630000,191.898000,126.630000C189.137000,126.630000,186.898000,128.868000,186.898000,131.630000L186.898000,160.215000C183.646000,158.438000,181.434000,154.986000,181.434000,151.027000L181.434000,131.630000C181.434000,128.868000,179.195000,126.630000,176.434000,126.630000C173.673000,126.630000,171.434000,128.868000,171.434000,131.630000L171.434000,151.026000C171.434000,160.582000,178.028000,168.605000,186.898000,170.845000L186.898000,227.481000C186.898000,230.243000,189.137000,232.481000,191.898000,232.481000C194.659000,232.481000,196.898000,230.243000,196.898000,227.481000L196.898000,170.845000C205.768000,168.605000,212.361000,160.581000,212.361000,151.026000L212.361000,131.630000C212.361000,128.868000,210.122000,126.630000,207.361000,126.630000Z" transform="matrix(1 0 0 1 0 1.29850000000002)" fill="rgb(255,255,255)" stroke="none" stroke-width="1"/><path id="eqb88zsp7fbk31" d="M225.755000,126.702000C224.304000,126.459000,222.812000,126.856000,221.684000,127.806000C220.556000,128.756000,219.905000,130.156000,219.905000,131.630000L219.905000,195.775000L219.905000,227.482000C219.905000,230.244000,222.144000,232.482000,224.905000,232.482000C227.666000,232.482000,229.905000,230.244000,229.905000,227.482000L229.905000,200.775000L248.597000,200.775000C251.358000,200.775000,253.597000,198.537000,253.597000,195.775000L253.597000,159.759000C253.598000,143.388000,241.888000,129.485000,225.755000,126.702000ZM243.598000,190.774000L229.906000,190.774000L229.906000,138.365000C238.102000,142.124000,243.598000,150.361000,243.598000,159.759000Z" transform="matrix(1 0 0 1 0 1.29850000000002)" fill="rgb(255,255,255)" stroke="none" stroke-width="1"/></g><g id="eqb88zsp7fbk32"><g id="eqb88zsp7fbk33"><circle id="eqb88zsp7fbk34" r="57.517000" transform="matrix(1 0 0 1 337.36900000000003 165.44900000000001)" fill="rgb(1,236,165)" stroke="none" stroke-width="1"/><path id="eqb88zsp7fbk35" d="M350.682000,216.260000C348.011000,216.958000,346.411000,219.690000,347.109000,222.362000C347.696000,224.610000,349.723000,226.099000,351.943000,226.099000C352.361000,226.099000,352.787000,226.046000,353.211000,225.936000C380.692000,218.755000,399.886000,193.882000,399.886000,165.450000C399.886000,138.480000,382.719000,115.446000,358.739000,106.697000L358.739000,79.793000C358.739000,66.008000,347.524000,54.793000,333.739000,54.793000L151.763000,54.793000C137.978000,54.793000,126.763000,66.008000,126.763000,79.793000L126.763000,432.207000C126.763000,445.992000,137.978000,457.207000,151.763000,457.207000L333.738000,457.207000C347.523000,457.207000,358.738000,445.992000,358.738000,432.207000L358.738000,249.413000C358.738000,246.651000,356.499000,244.413000,353.738000,244.413000C350.977000,244.413000,348.738000,246.651000,348.738000,249.413000L348.738000,432.207000C348.738000,440.478000,342.009000,447.207000,333.738000,447.207000L151.763000,447.207000C143.492000,447.207000,136.763000,440.478000,136.763000,432.207000L136.763000,79.793000C136.763000,71.522000,143.492000,64.793000,151.763000,64.793000L333.738000,64.793000C342.009000,64.793000,348.738000,71.522000,348.738000,79.793000L348.738000,103.987000C345.048000,103.306000,341.253000,102.932000,337.369000,102.932000C302.897000,102.932000,274.852000,130.977000,274.852000,165.450000C274.852000,193.830000,294.002000,218.690000,321.422000,225.905000C324.094000,226.608000,326.828000,225.014000,327.530000,222.342000C328.233000,219.671000,326.637000,216.937000,323.967000,216.235000C300.937000,210.174000,284.852000,189.291000,284.852000,165.450000C284.852000,136.492000,308.411000,112.932000,337.369000,112.932000C366.327000,112.932000,389.886000,136.492000,389.886000,165.450000C389.885000,189.335000,373.764000,210.229000,350.682000,216.260000Z" fill="rgb(38,38,188)" stroke="none" stroke-width="1"/></g></g><g id="eqb88zsp7fbk36"><path id="eqb88zsp7fbk37" d="M361.619000,154.196000C361.619000,140.575000,350.389000,129.577000,336.682000,129.955000C323.651000,130.315000,313.171000,141.060000,313.118000,154.096000C313.097000,159.259000,314.691000,164.048000,317.422000,167.990000C320.572000,172.536000,323.328000,177.342000,325.611000,182.379000L335.611000,204.448000C336.295000,205.959000,338.441000,205.959000,339.125000,204.448000L349.202000,182.210000C351.475000,177.194000,354.264000,172.436000,357.379000,167.895000C360.054000,163.998000,361.619000,159.280000,361.619000,154.196000Z" opacity="0.74" fill="rgb(255,126,184)" stroke="none" stroke-width="1"/><circle id="eqb88zsp7fbk38" r="14.011000" transform="matrix(1 0 0 1 337.28399999999999 154.37600000000000)" fill="rgb(255,255,255)" stroke="none" stroke-width="1"/></g><path id="eqb88zsp7fbk39" d="M415.242000,124.939000C411.529000,124.939000,407.816000,123.526000,404.989000,120.699000C399.335000,115.046000,399.335000,105.846000,404.989000,100.193000C410.642000,94.538000,419.842000,94.538000,425.495000,100.193000C431.149000,105.846000,431.149000,115.046000,425.495000,120.699000C422.669000,123.526000,418.956000,124.939000,415.242000,124.939000ZM415.243000,105.948000C414.090000,105.948000,412.938000,106.386000,412.061000,107.263000C410.306000,109.018000,410.306000,111.873000,412.061000,113.628000C413.814000,115.382000,416.670000,115.382000,418.425000,113.628000C420.180000,111.873000,420.180000,109.018000,418.425000,107.263000C417.548000,106.387000,416.395000,105.948000,415.243000,105.948000Z" fill="rgb(255,126,184)" stroke="none" stroke-width="1"/><path id="eqb88zsp7fbk40" d="M396.243000,401.563000C394.963000,401.563000,393.684000,401.075000,392.707000,400.098000L386.743000,394.134000L380.779000,400.098000C378.826000,402.051000,375.661000,402.051000,373.708000,400.098000C371.755000,398.146000,371.755000,394.980000,373.708000,393.028000L383.208000,383.528000C385.161000,381.575000,388.326000,381.575000,390.279000,383.528000L399.779000,393.028000C401.732000,394.980000,401.732000,398.146000,399.779000,400.098000C398.802000,401.074000,397.523000,401.563000,396.243000,401.563000Z" fill="rgb(101,131,254)" stroke="none" stroke-width="1"/></g></g><script><![CDATA[!function(t,n){"object"==typeof exports&&"undefined"!=typeof module?module.exports=n():"function"==typeof define&&define.amd?define(n):(t=t||self).__SVGATOR_PLAYER__=n()}(this,(function(){"use strict";function t(n){return(t="function"==typeof Symbol&&"symbol"==typeof Symbol.iterator?function(t){return typeof t}:function(t){return t&&"function"==typeof Symbol&&t.constructor===Symbol&&t!==Symbol.prototype?"symbol":typeof t})(n)}function n(t,n){if(!(t instanceof n))throw new TypeError("Cannot call a class as a function")}function r(t,n){for(var r=0;r<n.length;r++){var e=n[r];e.enumerable=e.enumerable||!1,e.configurable=!0,"value"in e&&(e.writable=!0),Object.defineProperty(t,e.key,e)}}function e(t,n,e){return n&&r(t.prototype,n),e&&r(t,e),t}var i=Math.abs;function u(t){return t}function o(t,n,r){var e=1-r;return 3*r*e*(t*e+n*r)+r*r*r}function a(){var t=arguments.length>0&&void 0!==arguments[0]?arguments[0]:0,n=arguments.length>1&&void 0!==arguments[1]?arguments[1]:0,r=arguments.length>2&&void 0!==arguments[2]?arguments[2]:1,e=arguments.length>3&&void 0!==arguments[3]?arguments[3]:1;return t<0||t>1||r<0||r>1?null:i(t-n)<=1e-5&&i(r-e)<=1e-5?u:function(u){if(u<=0)return t>0?u*n/t:0===n&&r>0?u*e/r:0;if(u>=1)return r<1?1+(u-1)*(e-1)/(r-1):1===r&&t<1?1+(u-1)*(n-1)/(t-1):1;for(var a,l=0,f=1;l<f;){var s=o(t,r,a=(l+f)/2);if(i(u-s)<1e-5)break;s<u?l=a:f=a}return o(n,e,a)}}function l(){return 1}function f(t){return 1===t?1:0}function s(){var t=arguments.length>0&&void 0!==arguments[0]?arguments[0]:1,n=arguments.length>1&&void 0!==arguments[1]?arguments[1]:0;if(1===t){if(0===n)return f;if(1===n)return l}var r=1/t;return function(t){return t>=1?1:(t+=n*r)-t%r}}function c(t){var n=arguments.length>1&&void 0!==arguments[1]?arguments[1]:2;if(Number.isInteger(t))return t;var r=Math.pow(10,n);return Math.round(t*r)/r}var v=Math.PI/180;function h(t,n,r){return t>=.5?r:n}function y(t,n,r){return 0===t||n===r?n:t*(r-n)+n}function d(t,n,r){var e=y(t,n,r);return e<=0?0:e}function g(t,n,r){return 0===t?n:1===t?r:{x:y(t,n.x,r.x),y:y(t,n.y,r.y)}}function m(t,n,r){return 0===t?n:1===t?r:{x:d(t,n.x,r.x),y:d(t,n.y,r.y)}}function p(t,n,r){var e=function(t,n,r){return Math.round(y(t,n,r))}(t,n,r);return e<=0?0:e>=255?255:e}function b(t,n,r){return 0===t?n:1===t?r:{r:p(t,n.r,r.r),g:p(t,n.g,r.g),b:p(t,n.b,r.b),a:y(t,null==n.a?1:n.a,null==r.a?1:r.a)}}function w(t,n,r){if(0===t)return n;if(1===t)return r;var e=n.length;if(e!==r.length)return h(t,n,r);for(var i=[],u=0;u<e;u++)i.push(b(t,n[u],r[u]));return i}function A(t,n,r){var e=n.length;if(e!==r.length)return h(t,n,r);for(var i=new Array(e),u=0;u<e;u++)i[u]=y(t,n[u],r[u]);return i}function x(t,n){for(var r=[],e=0;e<t;e++)r.push(n);return r}function k(t,n){if(--n<=0)return t;var r=(t=Object.assign([],t)).length;do{for(var e=0;e<r;e++)t.push(t[e])}while(--n>0);return t}var S=/\.0+$/g;function _(t){return Number.isInteger(t)?t+"":t.toFixed(6).replace(S,"")}function M(t){var n=arguments.length>1&&void 0!==arguments[1]?arguments[1]:" ";return t&&t.length?t.map(_).join(n):""}function I(t){return _(t.x)+","+_(t.y)}function E(t){return t?null==t.a||t.a>=1?"rgb("+t.r+","+t.g+","+t.b+")":"rgba("+t.r+","+t.g+","+t.b+","+t.a+")":"transparent"}var F={f:null,i:m,u:function(t,n){return function(r){var e=n(r);t.setAttribute("rx",_(e.x)),t.setAttribute("ry",_(e.y))}}},B={f:null,i:function(t,n,r){return 0===t?n:1===t?r:{width:d(t,n.width,r.width),height:d(t,n.height,r.height)}},u:function(t,n){return function(r){var e=n(r);t.setAttribute("width",_(e.width)),t.setAttribute("height",_(e.height))}}},j=Math.sin,q=Math.cos,P=Math.acos,O=Math.asin,z=Math.tan,L=Math.atan2,C=Math.PI/180,R=180/Math.PI,T=Math.sqrt,V=function(){function t(){var r=arguments.length>0&&void 0!==arguments[0]?arguments[0]:1,e=arguments.length>1&&void 0!==arguments[1]?arguments[1]:0,i=arguments.length>2&&void 0!==arguments[2]?arguments[2]:0,u=arguments.length>3&&void 0!==arguments[3]?arguments[3]:1,o=arguments.length>4&&void 0!==arguments[4]?arguments[4]:0,a=arguments.length>5&&void 0!==arguments[5]?arguments[5]:0;n(this,t),this.m=[r,e,i,u,o,a],this.i=null,this.w=null,this.s=null}return e(t,[{key:"point",value:function(t,n){var r=this.m;return{x:r[0]*t+r[2]*n+r[4],y:r[1]*t+r[3]*n+r[5]}}},{key:"translateSelf",value:function(){var t=arguments.length>0&&void 0!==arguments[0]?arguments[0]:0,n=arguments.length>1&&void 0!==arguments[1]?arguments[1]:0;if(!t&&!n)return this;var r=this.m;return r[4]+=r[0]*t+r[2]*n,r[5]+=r[1]*t+r[3]*n,this.w=this.s=this.i=null,this}},{key:"rotateSelf",value:function(){var t=arguments.length>0&&void 0!==arguments[0]?arguments[0]:0;if(t%=360){var n=j(t*=C),r=q(t),e=this.m,i=e[0],u=e[1];e[0]=i*r+e[2]*n,e[1]=u*r+e[3]*n,e[2]=e[2]*r-i*n,e[3]=e[3]*r-u*n,this.w=this.s=this.i=null}return this}},{key:"scaleSelf",value:function(){var t=arguments.length>0&&void 0!==arguments[0]?arguments[0]:1,n=arguments.length>1&&void 0!==arguments[1]?arguments[1]:1;if(1!==t||1!==n){var r=this.m;r[0]*=t,r[1]*=t,r[2]*=n,r[3]*=n,this.w=this.s=this.i=null}return this}},{key:"skewSelf",value:function(t,n){if(n%=360,(t%=360)||n){var r=this.m,e=r[0],i=r[1],u=r[2],o=r[3];t&&(t=z(t*C),r[2]+=e*t,r[3]+=i*t),n&&(n=z(n*C),r[0]+=u*n,r[1]+=o*n),this.w=this.s=this.i=null}return this}},{key:"resetSelf",value:function(){var t=arguments.length>0&&void 0!==arguments[0]?arguments[0]:1,n=arguments.length>1&&void 0!==arguments[1]?arguments[1]:0,r=arguments.length>2&&void 0!==arguments[2]?arguments[2]:0,e=arguments.length>3&&void 0!==arguments[3]?arguments[3]:1,i=arguments.length>4&&void 0!==arguments[4]?arguments[4]:0,u=arguments.length>5&&void 0!==arguments[5]?arguments[5]:0,o=this.m;return o[0]=t,o[1]=n,o[2]=r,o[3]=e,o[4]=i,o[5]=u,this.w=this.s=this.i=null,this}},{key:"recomposeSelf",value:function(){var t=arguments.length>0&&void 0!==arguments[0]?arguments[0]:null,n=arguments.length>1&&void 0!==arguments[1]?arguments[1]:null,r=arguments.length>2&&void 0!==arguments[2]?arguments[2]:null,e=arguments.length>3&&void 0!==arguments[3]?arguments[3]:null,i=arguments.length>4&&void 0!==arguments[4]?arguments[4]:null;return this.isIdentity||this.resetSelf(),t&&(t.x||t.y)&&this.translateSelf(t.x,t.y),n&&this.rotateSelf(n),r&&(r.x&&this.skewSelf(r.x,0),r.y&&this.skewSelf(0,r.y)),!e||1===e.x&&1===e.y||this.scaleSelf(e.x,e.y),i&&(i.x||i.y)&&this.translateSelf(i.x,i.y),this}},{key:"decompose",value:function(){var t=arguments.length>0&&void 0!==arguments[0]?arguments[0]:0,n=arguments.length>1&&void 0!==arguments[1]?arguments[1]:0,r=this.m,e=r[0]*r[0]+r[1]*r[1],i=[[r[0],r[1]],[r[2],r[3]]],u=T(e);if(0===u)return{origin:{x:r[4],y:r[5]},translate:{x:t,y:n},scale:{x:0,y:0},skew:{x:0,y:0},rotate:0};i[0][0]/=u,i[0][1]/=u;var o=r[0]*r[3]-r[1]*r[2]<0;o&&(u=-u);var a=i[0][0]*i[1][0]+i[0][1]*i[1][1];i[1][0]-=i[0][0]*a,i[1][1]-=i[0][1]*a;var l=T(i[1][0]*i[1][0]+i[1][1]*i[1][1]);if(0===l)return{origin:{x:r[4],y:r[5]},translate:{x:t,y:n},scale:{x:u,y:0},skew:{x:0,y:0},rotate:0};i[1][0]/=l,i[1][1]/=l,a/=l;var f=0;return i[1][1]<0?(f=P(i[1][1])*R,i[0][1]<0&&(f=360-f)):f=O(i[0][1])*R,o&&(f=-f),a=L(a,T(i[0][0]*i[0][0]+i[0][1]*i[0][1]))*R,{origin:{x:r[4],y:r[5]},translate:{x:t,y:n},scale:{x:u,y:l},skew:{x:a,y:0},rotate:f}}},{key:"toString",value:function(){return null===this.s&&(this.s="matrix("+this.m.map(N).join(" ")+")"),this.s}},{key:"determinant",get:function(){var t=this.m;return t[0]*t[3]-t[1]*t[2]}},{key:"isIdentity",get:function(){if(null===this.i){var t=this.m;this.i=1===t[0]&&0===t[1]&&0===t[2]&&1===t[3]&&0===t[4]&&0===t[5]}return this.i}}]),t}(),D=/\.0+$/;function N(t){return Number.isInteger(t)?t:t.toFixed(14).replace(D,"")}Object.freeze({M:2,L:2,Z:0,H:1,V:1,C:6,Q:4,T:2,S:4,A:7});function G(t,n,r){return t+(n-t)*r}function $(t,n,r){var e=arguments.length>3&&void 0!==arguments[3]&&arguments[3],i={x:G(t.x,n.x,r),y:G(t.y,n.y,r)};return e&&(i.a=H(t,n)),i}function H(t,n){return Math.atan2(n.y-t.y,n.x-t.x)}function Q(t,n,r,e){var i=1-e;return i*i*t+2*i*e*n+e*e*r}function U(t,n,r,e){return 2*(1-e)*(n-t)+2*e*(r-n)}function Y(t,n,r,e){var i=arguments.length>4&&void 0!==arguments[4]&&arguments[4],u={x:Q(t.x,n.x,r.x,e),y:Q(t.y,n.y,r.y,e)};return i&&(u.a=Z(t,n,r,e)),u}function Z(t,n,r,e){return Math.atan2(U(t.y,n.y,r.y,e),U(t.x,n.x,r.x,e))}function J(t,n,r,e,i){var u=i*i;return i*u*(e-t+3*(n-r))+3*u*(t+r-2*n)+3*i*(n-t)+t}function K(t,n,r,e,i){var u=1-i;return 3*(u*u*(n-t)+2*u*i*(r-n)+i*i*(e-r))}function W(t,n,r,e,i){var u=arguments.length>5&&void 0!==arguments[5]&&arguments[5],o={x:J(t.x,n.x,r.x,e.x,i),y:J(t.y,n.y,r.y,e.y,i)};return u&&(o.a=X(t,n,r,e,i)),o}function X(t,n,r,e,i){return Math.atan2(K(t.y,n.y,r.y,e.y,i),K(t.x,n.x,r.x,e.x,i))}function tt(t,n,r){var e=arguments.length>3&&void 0!==arguments[3]&&arguments[3];if(rt(n)){if(et(r))return Y(n,r.start,r,t,e)}else if(rt(r)){if(n.end)return Y(n,n.end,r,t,e)}else{if(n.end)return r.start?W(n,n.end,r.start,r,t,e):Y(n,n.end,r,t,e);if(r.start)return Y(n,r.start,r,t,e)}return $(n,r,t,e)}function nt(t,n,r){var e=tt(t,n,r,!0);return e.a=function(t){var n=arguments.length>1&&void 0!==arguments[1]&&arguments[1];return n?t+Math.PI:t}(e.a)/v,e}function rt(t){return!t.type||"corner"===t.type}function et(t){return null!=t.start&&!rt(t)}var it=new V;var ut={f:function(t){return t?t.join(" "):""},i:function(n,r,e){if(0===n)return r;if(1===n)return e;var i=r.length;if(i!==e.length)return h(n,r,e);for(var u,o=new Array(i),a=0;a<i;a++){if((u=t(r[a]))!==t(e[a]))return h(n,r,e);if("number"===u)o[a]=y(n,r[a],e[a]);else{if(r[a]!==e[a])return h(n,r,e);o[a]=r[a]}}return o}},ot={f:null,i:A,u:function(t,n){return function(r){var e=n(r);t.setAttribute("x1",_(e[0])),t.setAttribute("y1",_(e[1])),t.setAttribute("x2",_(e[2])),t.setAttribute("y2",_(e[3]))}}},at={f:_,i:y},lt={f:_,i:function(t,n,r){var e=y(t,n,r);return e<=0?0:e>=1?1:e}},ft={f:M,i:function(t,n,r){var e,i,u,o=n.length,a=r.length;if(o!==a)if(0===o)n=x(o=a,0);else if(0===a)a=o,r=x(o,0);else{var l=(u=(e=o)*(i=a)/function(t,n){for(var r;n;)r=n,n=t%n,t=r;return t||1}(e,i))<0?-u:u;n=k(n,Math.floor(l/o)),r=k(r,Math.floor(l/a)),o=a=l}for(var f=[],s=0;s<o;s++)f.push(c(d(t,n[s],r[s]),6));return f}};function st(t,n,r,e,i,u,o,a){return n=function(t,n,r){for(var e,i,u,o=t.length-1,a={},l=0;l<=o;l++)(e=t[l]).e&&(e.e=n(e.e)),e.v&&"g"===(i=e.v).t&&i.r&&(u=r.getElementById(i.r))&&(a[i.r]=u.querySelectorAll("stop"));return a}(t,e,a),function(e){var i,u=r(e,t,ct);return u?"c"===u.t?E(u.v):"g"===u.t?(n[u.r]&&function(t,n){for(var r=0,e=t.length;r<e;r++)t[r].setAttribute("stop-color",E(n[r]))}(n[u.r],u.v),(i=u.r)?"url(#"+i+")":"none"):"none":"none"}}function ct(t,n,r){if(0===t)return n;if(1===t)return r;if(n&&r){var e=n.t;if(e===r.t)switch(n.t){case"c":return{t:e,v:b(t,n.v,r.v)};case"g":if(n.r===r.r)return{t:e,v:w(t,n.v,r.v),r:n.r}}}return h(t,n,r)}var vt={blur:m,brightness:d,contrast:d,"drop-shadow":function(t,n,r){return 0===t?n:1===t?r:{blur:m(t,n.blur,r.blur),offset:g(t,n.offset,r.offset),color:b(t,n.color,r.color)}},grayscale:d,"hue-rotate":y,invert:d,opacity:d,saturate:d,sepia:d};function ht(t,n,r){if(0===t)return n;if(1===t)return r;var e=n.length;if(e!==r.length)return h(t,n,r);for(var i,u=[],o=0;o<e;o++){if(n[o].type!==r[o].type)return n;if(!(i=vt[n[o].type]))return h(t,n,r);u.push({type:n.type,value:i(t,n[o].value,r[o].value)})}return u}var yt={blur:function(t){return t?function(n){t.setAttribute("stdDeviation",I(n))}:null},brightness:function(t,n,r){return(t=gt(r,n))?function(n){n=_(n),t.map((function(t){return t.setAttribute("slope",n)}))}:null},contrast:function(t,n,r){return(t=gt(r,n))?function(n){var r=_((1-n)/2);n=_(n),t.map((function(t){t.setAttribute("slope",n),t.setAttribute("intercept",r)}))}:null},"drop-shadow":function(t,n,r){var e=r.getElementById(n+"-blur");if(!e)return null;var i=r.getElementById(n+"-offset");if(!i)return null;var u=r.getElementById(n+"-flood");return u?function(t){e.setAttribute("stdDeviation",I(t.blur)),i.setAttribute("dx",_(t.offset.x)),i.setAttribute("dy",_(t.offset.y)),u.setAttribute("flood-color",E(t.color))}:null},grayscale:function(t){return t?function(n){t.setAttribute("values",M(function(t){return[.2126+.7874*(t=1-t),.7152-.7152*t,.0722-.0722*t,0,0,.2126-.2126*t,.7152+.2848*t,.0722-.0722*t,0,0,.2126-.2126*t,.7152-.7152*t,.0722+.9278*t,0,0,0,0,0,1,0]}(n)))}:null},"hue-rotate":function(t){return t?function(n){return t.setAttribute("values",_(n))}:null},invert:function(t,n,r){return(t=gt(r,n))?function(n){n=_(n)+" "+_(1-n),t.map((function(t){return t.setAttribute("tableValues",n)}))}:null},opacity:function(t,n,r){return(t=r.getElementById(n+"-A"))?function(n){return t.setAttribute("tableValues","0 "+_(n))}:null},saturate:function(t){return t?function(n){return t.setAttribute("values",_(n))}:null},sepia:function(t){return t?function(n){return t.setAttribute("values",M(function(t){return[.393+.607*(t=1-t),.769-.769*t,.189-.189*t,0,0,.349-.349*t,.686+.314*t,.168-.168*t,0,0,.272-.272*t,.534-.534*t,.131+.869*t,0,0,0,0,0,1,0]}(n)))}:null}};var dt=["R","G","B"];function gt(t,n){var r=dt.map((function(r){return t.getElementById(n+"-"+r)||null}));return-1!==r.indexOf(null)?null:r}var mt={fill:st,"fill-opacity":lt,stroke:st,"stroke-opacity":lt,"stroke-width":at,"stroke-dashoffset":{f:_,i:y},"stroke-dasharray":ft,opacity:lt,transform:function(n,r,e,i){if(!(n=function(n,r){if(!n||"object"!==t(n))return null;var e=!1;for(var i in n)n.hasOwnProperty(i)&&(n[i]&&n[i].length?(n[i].forEach((function(t){t.e&&(t.e=r(t.e))})),e=!0):delete n[i]);return e?n:null}(n,i)))return null;var u=function(t,i,u){var o=arguments.length>3&&void 0!==arguments[3]?arguments[3]:null;return n[t]?e(i,n[t],u):r&&r[t]?r[t]:o};return r&&r.a&&n.o?function(t){var r=e(t,n.o,nt);return it.recomposeSelf(r,u("r",t,y,0)+r.a,u("k",t,g),u("s",t,g),u("t",t,g)).toString()}:function(t){return it.recomposeSelf(u("o",t,tt,null),u("r",t,y,0),u("k",t,g),u("s",t,g),u("t",t,g)).toString()}},"#filter":function(t,n,r,e,i,u,o,a){if(!n.items||!t||!t.length)return null;var l=function(t,n){var r=(t=t.map((function(t){return t&&yt[t[0]]?(n.getElementById(t[1]),yt[t[0]](n.getElementById(t[1]),t[1],n)):null}))).length;return function(n){for(var e=0;e<r;e++)t[e]&&t[e](n[e].value)}}(n.items,a);return l?(t=function(t,n){return t.map((function(t){return t.e=n(t.e),t}))}(t,e),function(n){l(r(n,t,ht))}):null},"#line":ot,points:{f:M,i:A},d:ut,r:at,"#size":B,"#radius":F,_:function(t,n){if(Array.isArray(t))for(var r=0;r<t.length;r++)this[t[r]]=n;else this[t]=n}},pt=function(){function t(r){n(this,t),this.list=r,this.length=r.length}return e(t,[{key:"setAttribute",value:function(t,n){for(var r=this.list,e=0;e<this.length;e++)r[e].setAttribute(t,n)}},{key:"removeAttribute",value:function(t){for(var n=this.list,r=0;r<this.length;r++)n[r].removeAttribute(t)}},{key:"style",value:function(t,n){for(var r=this.list,e=0;e<this.length;e++)r[e].style[t]=n}}]),t}(),bt=/-./g,wt=function(t,n){return n.toUpperCase()};function At(t){return"function"==typeof t?t:h}function xt(t){return t?"function"==typeof t?t:Array.isArray(t)?function(t){var n=arguments.length>1&&void 0!==arguments[1]?arguments[1]:u;if(!Array.isArray(t))return n;switch(t.length){case 1:return s(t[0])||n;case 2:return s(t[0],t[1])||n;case 4:return a(t[0],t[1],t[2],t[3])||n}return n}(t,null):function(t,n){var r=arguments.length>2&&void 0!==arguments[2]?arguments[2]:u;switch(t){case"linear":return u;case"steps":return s(n.steps||1,n.jump||0)||r;case"bezier":case"cubic-bezier":return a(n.x1||0,n.y1||0,n.x2||0,n.y2||0)||r}return r}(t.type,t.value,null):null}function kt(t,n,r){var e=arguments.length>3&&void 0!==arguments[3]&&arguments[3],i=n.length-1;if(t<=n[0].t)return e?[0,0,n[0].v]:n[0].v;if(t>=n[i].t)return e?[i,1,n[i].v]:n[i].v;var u,o=n[0],a=null;for(u=1;u<=i;u++){if(!(t>n[u].t)){a=n[u];break}o=n[u]}return null==a?e?[i,1,n[i].v]:n[i].v:o.t===a.t?e?[u,1,a.v]:a.v:(t=(t-o.t)/(a.t-o.t),o.e&&(t=o.e(t)),e?[u,t,r(t,o.v,a.v)]:r(t,o.v,a.v))}function St(t,n){var r=arguments.length>2&&void 0!==arguments[2]?arguments[2]:null;return t&&t.length?"function"!=typeof n?null:("function"!=typeof r&&(r=null),function(e){var i=kt(e,t,n);return null!=i&&r&&(i=r(i)),i}):null}function _t(t,n){return t.t-n.t}function Mt(n,r,e,i,u){var o,a="@"===e[0],l="#"===e[0],f=mt[e],s=h;switch(a?(o=e.substr(1),e=o.replace(bt,wt)):l&&(e=e.substr(1)),t(f)){case"function":if(s=f(i,u,kt,xt,e,a,r,n),l)return s;break;case"string":s=St(i,At(f));break;case"object":if((s=St(i,At(f.i),f.f))&&"function"==typeof f.u)return f.u(r,s,e,a,n)}return s?function(t,n,r){var e=arguments.length>3&&void 0!==arguments[3]&&arguments[3];if(e)return t instanceof pt?function(e){return t.style(n,r(e))}:function(e){return t.style[n]=r(e)};if(Array.isArray(n)){var i=n.length;return function(e){var u=r(e);if(null==u)for(var o=0;o<i;o++)t[o].removeAttribute(n);else for(var a=0;a<i;a++)t[a].setAttribute(n,u)}}return function(e){var i=r(e);null==i?t.removeAttribute(n):t.setAttribute(n,i)}}(r,e,s,a):null}function It(n,r,e,i){if(!i||"object"!==t(i))return null;var u=null,o=null;return Array.isArray(i)?o=function(t){if(!t||!t.length)return null;for(var n=0;n<t.length;n++)t[n].e&&(t[n].e=xt(t[n].e));return t.sort(_t)}(i):(o=i.keys,u=i.data||null),o?Mt(n,r,e,o,u):null}function Et(t,n,r){if(!r)return null;var e=[];for(var i in r)if(r.hasOwnProperty(i)){var u=It(t,n,i,r[i]);u&&e.push(u)}return e.length?e:null}function Ft(t,n){if(!n.duration||n.duration<0)return null;var r=function(t,n){if(!n)return null;var r=[];if(Array.isArray(n))for(var e=n.length,i=0;i<e;i++){var u=n[i];if(2===u.length){var o=null;if("string"==typeof u[0])o=t.getElementById(u[0]);else if(Array.isArray(u[0])){o=[];for(var a=0;a<u[0].length;a++)if("string"==typeof u[0][a]){var l=t.getElementById(u[0][a]);l&&o.push(l)}o=o.length?1===o.length?o[0]:new pt(o):null}if(o){var f=Et(t,o,u[1]);f&&(r=r.concat(f))}}}else for(var s in n)if(n.hasOwnProperty(s)){var c=t.getElementById(s);if(c){var v=Et(t,c,n[s]);v&&(r=r.concat(v))}}return r.length?r:null}(t,n.elements);return r?function(t,n){var r=arguments.length>2&&void 0!==arguments[2]?arguments[2]:1/0,e=arguments.length>3&&void 0!==arguments[3]?arguments[3]:1,i=arguments.length>4&&void 0!==arguments[4]&&arguments[4],u=arguments.length>5&&void 0!==arguments[5]?arguments[5]:1,o=t.length,a=e>0?n:0;i&&r%2==0&&(a=n-a);var l=null;return function(f,s){var c=f%n,v=1+(f-c)/n;s*=e,i&&v%2==0&&(s=-s);var h=!1;if(v>r)c=a,h=!0,-1===u&&(c=e>0?0:n);else if(s<0&&(c=n-c),c===l)return!1;l=c;for(var y=0;y<o;y++)t[y](c);return h}}(r,n.duration,n.iterations||1/0,n.direction||1,!!n.alternate,n.fill||1):null}var Bt=function(){function t(r){var e=arguments.length>1&&void 0!==arguments[1]?arguments[1]:{};n(this,t),this._id=0,this._running=!1,this._animations=r,this.direction=e.direction||1,this.speed=e.speed||1,this.fps=e.fps||100,this.offset=e.offset||0}return e(t,[{key:"_start",value:function(){var t=this,n=arguments.length>0&&void 0!==arguments[0]?arguments[0]:0,r=-1/0,e=null,i={},u=function u(o){t._running=!0,null==e&&(e=o);var a=Math.round((o-e+n)*t.speed),l=t.fps?1e3/t.fps:0;if(a>r+l){t.offset=a,r=a;for(var f=t._animations,s=f.length,c=0,v=0;v<s;v++)i[v]?c++:(i[v]=f[v](a,t.direction),i[v]&&c++);if(c===s)return void t._stop()}t._id=window.requestAnimationFrame(u)};this._id=window.requestAnimationFrame(u)}},{key:"_stop",value:function(){this._id&&window.cancelAnimationFrame(this._id),this._running=!1}},{key:"play",value:function(){this._running||this._start(this.offset)}},{key:"stop",value:function(){this._stop(),this.offset=0;var t=this.direction,n=this._animations;requestAnimationFrame((function(){for(var r=0;r<n.length;r++)n[r](0,t)}))}},{key:"restart",value:function(){this._stop(),this.offset=0,this._start()}},{key:"pause",value:function(){this._stop()}},{key:"reverse",value:function(){this.direction=-this.direction}}],[{key:"build",value:function(n){if(!(n=function(t){if(!t||!t.root||!Array.isArray(t.animations))return null;var n=window.document.getElementById(t.root);if(!n)return null;var r=t.animations.map((function(t){return Ft(n,t)})).filter((function(t){return!!t}));return r.length?{element:n,animations:r,options:t.options||void 0}:null}(n)))return null;var r=n.element,e=n.options||{},i=new t(n.animations,n.options);return function(t,n,r){var e=arguments.length>3&&void 0!==arguments[3]?arguments[3]:null;if("click"===r){var i=function r(){n.removeEventListener("click",r),t.play()};return void n.addEventListener("click",i)}if("hover"===r)return n.addEventListener("mouseenter",(function(){return t.play()})),void n.addEventListener("mouseleave","freeze"===e?function(){return t.pause()}:function(){return t.stop()});t.play()}(i,r,e.start,e.hover),i}}]),t}();return function(){for(var t=0,n=["ms","moz","webkit","o"],r=0;r<n.length&&!window.requestAnimationFrame;++r)window.requestAnimationFrame=window[n[r]+"RequestAnimationFrame"],window.cancelAnimationFrame=window[n[r]+"CancelAnimationFrame"]||window[n[r]+"CancelRequestAnimationFrame"];window.requestAnimationFrame||(window.requestAnimationFrame=function(n){var r=Date.now(),e=Math.max(0,16-(r-t)),i=window.setTimeout((function(){n(r+e)}),e);return t=r+e,i},window.cancelAnimationFrame=window.clearTimeout)}(),Bt}));
__SVGATOR_PLAYER__.build({"root":"eqb88zsp7fbk1","animations":[{"duration":3000,"direction":1,"iterations":0,"fill":1,"alternate":false,"elements":{"eqb88zsp7fbk26":{"transform":{"keys":{"o":[{"t":0,"v":{"x":-200,"y":0,"type":"corner"}},{"t":2200,"v":{"x":0,"y":0,"type":"corner"}}]}}},"eqb88zsp7fbk28":{"transform":{"keys":{"o":[{"t":0,"v":{"x":200,"y":0,"type":"corner"}},{"t":1700,"v":{"x":0,"y":0,"type":"corner"}}]}}},"eqb88zsp7fbk30":{"transform":{"keys":{"o":[{"t":0,"v":{"x":0,"y":1.2985000000000184,"type":"corner"}},{"t":800,"v":{"x":0,"y":9.3,"type":"corner"}},{"t":1500,"v":{"x":0,"y":3.3,"type":"corner"}},{"t":2300,"v":{"x":0,"y":9.3,"type":"corner"}},{"t":3000,"v":{"x":0,"y":1.3,"type":"corner"}}]}}},"eqb88zsp7fbk31":{"transform":{"keys":{"o":[{"t":0,"v":{"x":0,"y":1.2985000000000184,"type":"corner"}},{"t":800,"v":{"x":0,"y":3.3,"type":"corner"}},{"t":1500,"v":{"x":0,"y":9.3,"type":"corner"}},{"t":2300,"v":{"x":0,"y":3.3,"type":"corner"}},{"t":3000,"v":{"x":0,"y":1.3000000000000007,"type":"corner"}}]}}},"eqb88zsp7fbk37":{"opacity":[{"t":0,"v":0.74},{"t":900,"v":1},{"t":1800,"v":0.74},{"t":2800,"v":1}]}}}],"options":{"start":"load","hover":"freeze"}})]]></script></svg>