<svg id="flat" height="512" viewBox="0 0 512 512" width="512" xmlns="http://www.w3.org/2000/svg"><path d="m312 104h-40l-16 40h40z" fill="#639aff"/><path d="m304 240h36.46788a27.53212 27.53212 0 0 1 27.53212 27.53212v4.46788l-32 104h-32l16-104h-80a32 32 0 0 1 -32-32 79.99887 79.99887 0 0 1 1.61634-16h94.38366z" fill="#ffceb6"/><path d="m304 240h36.46788a27.53212 27.53212 0 0 1 27.53212 27.53212v4.46788l-32 104h-32l16-104h-80a32 32 0 0 1 -32-32 79.99887 79.99887 0 0 1 1.61634-16h94.38366z" fill="#718799"/><path d="m368 223a16.99834 16.99834 0 0 1 -17 17h-55.62012a32.00389 32.00389 0 0 1 -24.98974-12.01l-3.19014-3.99h-57.57988a79.96936 79.96936 0 0 1 4.52978-14.77l25.23-60.55a33.60209 33.60209 0 0 1 64.6201 12.9201v38.3999l24 3 25.10986 3.14014a16.97179 16.97179 0 0 1 14.89014 16.85986z" fill="#ffceb6"/><path d="m328 203v37h-32.62012a32.00389 32.00389 0 0 1 -24.98974-12.01l-3.19014-3.99h-57.57988a79.96936 79.96936 0 0 1 4.52978-14.77l25.23-60.55a33.60209 33.60209 0 0 1 64.6201 12.9201v38.3999z" fill="#7dafff"/><path d="m24 160h144v144h-144z" fill="#ffc431"/><path d="m104 216h-16v-24a8 8 0 0 1 8-8 8 8 0 0 1 8 8z" fill="#ffa100"/><path d="m96 344-24-24v-16h64z" fill="#ef5e3b"/><circle cx="96" cy="416" fill="#b6caf0" r="48"/><path d="m96 472a56 56 0 1 1 56-56 56.0629 56.0629 0 0 1 -56 56zm0-96a40 40 0 1 0 40 40 40.04584 40.04584 0 0 0 -40-40z" fill="#718799"/><circle cx="440" cy="416" fill="#b6caf0" r="48"/><path d="m440 472a56 56 0 1 1 56-56 56.0629 56.0629 0 0 1 -56 56zm0-96a40 40 0 1 0 40 40 40.04584 40.04584 0 0 0 -40-40z" fill="#718799"/><path d="m376 376 51.02944 51.02944a16.97054 16.97054 0 0 0 12 4.97056 16.97054 16.97054 0 0 0 16.97056-16.97055 16.97054 16.97054 0 0 0 -4.97056-12l-51.02944-51.02945z" fill="#d1e4ff"/><path d="m392 328h72a24 24 0 0 1 24 24v16h-96z" fill="#548aff"/><path d="m456 304v24h-32l-56 112h-160v-48h48l40.23 7.31 47.77 8.69 40-80-16-80h24l32 48z" fill="#4f7ff7"/><path d="m48 248h96a24 24 0 0 1 -24 24h-48a24 24 0 0 1 -24-24z" fill="#ffa100"/><path d="m128 248v-8a32 32 0 0 0 -32-32 32 32 0 0 0 -32 32v8z" fill="#ffb401"/><path d="m112 304h184v24a72 72 0 0 1 -72 72h-96l-48-48z" fill="#548aff"/><path d="m168 272h104a24 24 0 0 1 24 24v8h-128z" fill="#486be0"/><path d="m136 432h-56v-32h32z" fill="#d1e4ff"/><path d="m368 248v-40h32l24 16-8 24z" fill="#548aff"/><path d="m313.54 201.19-19.09-2.38-21.61-43.23 14.32-7.16z" fill="#639aff"/><path d="m320 96v32h-40l-40-24v-24a32.00409 32.00409 0 0 1 32-32 47.97432 47.97432 0 0 1 48 48z" fill="#548aff"/><path d="m320 96v16l-48-24v-16h41.58008a47.72722 47.72722 0 0 1 6.41992 24z" fill="#9ce6ed"/><path d="m352 392-8 16-47.77-8.69 7.77-23.31h32z" fill="#e0edff"/><path d="m352 152h24a16 16 0 0 1 16 16v16a0 0 0 0 1 0 0h-24a16 16 0 0 1 -16-16v-16a0 0 0 0 1 0 0z" fill="#718799"/><path d="m376 184h16v24h-16z" fill="#62798c"/><path d="m424 328v-32l32 8v24z" fill="#7dafff"/><path d="m208 440h-72l-40-40h112z" fill="#e0edff"/><path d="m328 240h-32.62012a39.80132 39.80132 0 0 1 -31.23437-15.0127l-22.39258-27.98925 12.49414-9.9961 22.39258 27.99024a23.87964 23.87964 0 0 0 18.74023 9.00781h32.62012z" fill="#639aff"/></svg>