<svg id="Layer_1" height="512" viewBox="0 0 128 128" width="512" xmlns="http://www.w3.org/2000/svg" data-name="Layer 1"><circle cx="64" cy="64" fill="#daf2fe" r="44.685"/><path d="m30.167 70.727h67.667v7.898h-67.667z" fill="#5a6c75"/><path d="m64 42.217a28.51 28.51 0 0 0 -28.51 28.51h57.02a28.51 28.51 0 0 0 -28.51-28.51z" fill="#fbbe2c"/><path d="m64 42.217a28.677 28.677 0 0 1 4.7.392c.011-.13.02-.26.02-.392a4.717 4.717 0 0 0 -9.433 0c0 .132.009.262.02.392a28.677 28.677 0 0 1 4.693-.392z" fill="#475a61"/><path d="m42.453 62a1.75 1.75 0 0 1 -1.561-2.539 25.957 25.957 0 0 1 12.977-12.161 1.75 1.75 0 0 1 1.371 3.221 22.449 22.449 0 0 0 -11.224 10.521 1.749 1.749 0 0 1 -1.563.958z" fill="#fff"/><path d="m64 12.579a51.421 51.421 0 1 0 51.421 51.421 51.421 51.421 0 0 0 -51.421-51.421zm0 8.481a42.759 42.759 0 0 1 27.215 9.728l-60.427 60.427a42.938 42.938 0 0 1 33.212-70.154zm0 85.879a42.759 42.759 0 0 1 -27.215-9.728l60.427-60.426a42.938 42.938 0 0 1 -33.212 70.154z" fill="#fc3e81"/></svg>