<svg id="Capa_1" enable-background="new 0 0 512 512" height="512" viewBox="0 0 512 512" width="512" xmlns="http://www.w3.org/2000/svg"><g><g><path d="m501.699 415.22h-491.397c-5.69 0-10.302-4.613-10.302-10.302v-362.356c0-5.69 4.612-10.302 10.302-10.302h491.397c5.69 0 10.302 4.612 10.302 10.302v362.356c-.001 5.689-4.613 10.302-10.302 10.302z" fill="#f4fbff"/><path d="m501.699 415.22h-14.674v-382.96h14.674c5.69 0 10.302 4.612 10.302 10.302v362.356c-.001 5.689-4.613 10.302-10.302 10.302z" fill="#e4f6ff"/><path d="m478.695 128-12.486 16.648 12.486 16.658v210.311c0 5.687-4.605 10.302-10.302 10.302h-307.087l-128-95.745v-210.311c0-5.687 4.615-10.302 10.302-10.302h117.698l57.906 19.501 53.436-19.501h195.745c5.697 0 10.302 4.615 10.302 10.302z" fill="#95d6a4"/><path d="m478.695 128-12.486 16.648 12.486 16.658v210.311c0 5.687-4.605 10.302-10.302 10.302h-14.67v-316.358h14.67c5.697 0 10.302 4.615 10.302 10.302z" fill="#78c2a4"/><path d="m33.301 161.301v-33.301h206.049v-62.439h33.301v62.439h206.049v33.301h-206.049v220.618h-33.301v-62.439h-78.049v62.439h-33.301v-62.439h-94.699v-33.301h206.049v-124.878z" fill="#f6e781"/><path d="m453.724 128h24.976v33.301h-24.976z" fill="#f4dd45"/><path d="m161.301 65.561h78.049v62.439h-78.049z" fill="#dd636e" transform="matrix(-1 0 0 -1 400.651 193.562)"/><path d="m43.603 381.919h84.397v-62.439h-94.699v52.137c0 5.69 4.612 10.302 10.302 10.302z" fill="#dd636e"/><path d="m141.154 146.15-6.772 27.089c-1.281 5.123 4.037 9.389 8.761 7.028l60.175-30.087c4.556-2.278 4.556-8.779 0-11.057l-60.175-30.087c-4.723-2.362-10.042 1.905-8.761 7.028l6.772 27.089c.246.983.246 2.013 0 2.997z" fill="#9dc6fb"/></g><g><path d="m412.82 425.213-29.582 29.582c-4.023 4.023-10.546 4.023-14.569 0l-19.206-19.206 44.151-44.151 19.206 19.206c4.023 4.023 4.023 10.546 0 14.569z" fill="#2b4d66"/><path d="m449.333 479.74h-33.792c-2.732 0-5.353-1.085-7.284-3.017l-23.473-23.473 26.491-26.491 42.43 42.43c3.892 3.893 1.135 10.551-4.372 10.551z" fill="#4a80aa"/><circle cx="286.179" cy="328.155" fill="#9d66d5" r="124.878"/><path d="m361.698 228.701c15.95 20.973 25.424 47.138 25.424 75.519 0 68.968-55.91 124.878-124.878 124.878-28.382 0-54.547-9.474-75.519-25.424 22.809 29.992 58.867 49.359 99.454 49.359 68.968 0 124.878-55.91 124.878-124.878 0-40.587-19.367-76.645-49.359-99.454z" fill="#8659b9"/><circle cx="286.179" cy="328.155" fill="#e4f6ff" r="91.577"/><path d="m341.481 255.162c11.66 15.367 18.584 34.525 18.584 55.302 0 50.577-41.001 91.577-91.577 91.577-20.778 0-39.935-6.924-55.302-18.584 16.723 22.039 43.194 36.275 72.993 36.275 50.577 0 91.577-41 91.577-91.577 0-29.799-14.236-56.27-36.275-72.993z" fill="#d3effb"/></g></g></svg>