<?xml version="1.0" encoding="iso-8859-1"?>
<!-- Generator: Adobe Illustrator 19.0.0, SVG Export Plug-In . SVG Version: 6.00 Build 0)  -->
<svg version="1.1" id="Capa_1" xmlns="http://www.w3.org/2000/svg" xmlns:xlink="http://www.w3.org/1999/xlink" x="0px" y="0px"
	 viewBox="0 0 480 480" style="enable-background:new 0 0 480 480;" xml:space="preserve">
<path style="fill:#0378A3;" d="M216,368h200c8.837,0,16-7.163,16-16V24c0-8.837-7.163-16-16-16H208c-8.837,0-16,7.163-16,16v216"/>
<path style="fill:#ECC19C;" d="M160,408c55.448-18.48,89.504-66.248,80.616-124L240,280l65.192-72.056
	c4.391-5.125,6.806-11.651,6.808-18.4v-1.248c0.004-15.623-12.657-28.292-28.28-28.296c-0.003,0-0.005,0-0.008,0
	c-7.502,0.001-14.697,2.982-20,8.288L160,272l32-32V120l-84.888,65.16c-7.122,4.384-12.245,11.382-14.272,19.496L49.912,376.36
	c-1.271,5.075-1.913,10.288-1.912,15.52V480h128v-8l36.128-13.552c18.154-6.808,33.822-18.951,44.944-34.832L296,368h-80"/>
<circle style="fill:#F8CF26;" cx="360" cy="112" r="32"/>
<circle style="fill:#FF0000;" cx="360" cy="72" r="32"/>
<path d="M56,391.88c-0.003-4.585,0.559-9.152,1.672-13.6L100.6,206.576c1.519-6.074,5.363-11.308,10.704-14.576
	c0.232-0.144,0.456-0.304,0.68-0.464l72-55.28v100.432l-29.656,29.656l11.312,11.312l103.728-103.712
	c7.924-7.922,20.77-7.92,28.692,0.004c3.803,3.804,5.939,8.962,5.94,14.34v1.248c0.01,4.771-1.671,9.391-4.744,13.04l-65.192,72.056
	c-1.613,1.787-2.336,4.205-1.968,6.584l0.608,4c8,52.08-21.52,97.304-75.2,115.2l5.056,15.2
	c23.397-7.425,44.309-21.128,60.456-39.616h57.6l-30.12,43.024c-10.17,14.581-24.537,25.72-41.192,31.936l-36.128,13.544
	c-3.118,1.177-5.181,4.163-5.176,7.496v8h16v-2.456l30.936-11.6c19.682-7.352,36.662-20.516,48.688-37.744l36.544-52.2H416
	c13.255,0,24-10.745,24-24V24c0-13.255-10.745-24-24-24H208c-13.255,0-24,10.745-24,24v92.056l-81.456,62.528
	c-8.728,5.477-14.992,14.126-17.472,24.128L42.152,374.4c-1.432,5.716-2.155,11.587-2.152,17.48V480h16V391.88z M208,16h208
	c4.418,0,8,3.582,8,8v328c0,4.418-3.582,8-8,8H234.4c13.57-23.309,18.554-50.633,14.088-77.232v-0.224l62.776-69.392
	c5.634-6.579,8.733-14.954,8.736-23.616v-1.248c0.007-20.037-16.231-36.286-36.268-36.292c-9.631-0.003-18.869,3.823-25.676,10.636
	L200,220.688V24C200,19.582,203.582,16,208,16z"/>
<path d="M360,152c22.056,0.037,39.966-17.814,40.002-39.87c0.012-7.127-1.884-14.127-5.49-20.274
	C398.064,85.839,399.957,78.987,400,72c0-22.091-17.909-40-40-40s-40,17.909-40,40c0.043,6.987,1.936,13.839,5.488,19.856
	c-11.161,19.024-4.786,43.493,14.238,54.654C345.873,150.116,352.873,152.012,360,152z M360,136
	c-13.131,0.122-23.874-10.423-23.996-23.554c-0.024-2.597,0.377-5.179,1.188-7.646c13.68,9.613,31.92,9.613,45.6,0
	c4.101,12.474-2.688,25.911-15.162,30.012C365.168,135.621,362.591,136.022,360,136z M360,48c13.255,0,24,10.745,24,24
	s-10.745,24-24,24s-24-10.745-24-24S346.745,48,360,48z"/>
<path d="M216,48h16v120h-16V48z"/>
<path d="M248,56h16v80h-16V56z"/>
<path d="M304,240h16v32h-16V240z"/>
<path d="M304,288h16v40h-16V288z"/>
<path d="M360,176h16v160h-16V176z"/>
<path d="M392,176h16v160h-16V176z"/>
<g>
</g>
<g>
</g>
<g>
</g>
<g>
</g>
<g>
</g>
<g>
</g>
<g>
</g>
<g>
</g>
<g>
</g>
<g>
</g>
<g>
</g>
<g>
</g>
<g>
</g>
<g>
</g>
<g>
</g>
</svg>
