<?xml version="1.0"?>
<svg xmlns="http://www.w3.org/2000/svg" id="Filled" height="512px" viewBox="0 0 512 512" width="512px" class=""><g><link xmlns="" type="text/css" rel="stylesheet" id="dark-mode-general-link"/><link xmlns="" type="text/css" rel="stylesheet" id="dark-mode-custom-link"/><style xmlns="" type="text/css" id="dark-mode-custom-style"/><path d="m304 80 16 192v16h96v-16l16-192z" fill="#e74444" data-original="#E74444" class="" style="fill:#046B50" data-old_color="#e74444"/><path d="m432 80-2.67 32h-122.66l-2.67-32z" fill="#fae8d8" data-original="#FAE8D8" class="" style="fill:#FAE8D8"/><path d="m88 336h400v64h-400z" fill="#93573d" data-original="#93573D" class=""/><path d="m88 272h400v64h-400z" fill="#ab6647" data-original="#AB6647" class=""/><path d="m256 336h80l-8 32h-64z" fill="#794832" data-original="#794832" class=""/><path d="m120 380.773v-1.547a35.226 35.226 0 0 1 35.226-35.226h19.667a3.226 3.226 0 0 0 1.981-.68l49.926-38.832a27.227 27.227 0 0 1 37.976 4.483 27.228 27.228 0 0 1 -2.008 36.26l-49.261 49.261a3.226 3.226 0 0 0 2.282 5.508h131.558a3.227 3.227 0 0 1 1.545 6.059l-69.006 37.641a35.232 35.232 0 0 1 -16.869 4.3h-203.791a3.227 3.227 0 0 1 -3.226-3.226v-57.548a3.227 3.227 0 0 1 3.226-3.226h57.548a3.227 3.227 0 0 0 3.226-3.227z" fill="#f5cbaa" data-original="#F5CBAA" class="active-path" style="fill:#F5CBAA"/><path d="m24 360h64v104h-64z" fill="#e74444" transform="matrix(-1 0 0 -1 112 824)" data-original="#E74444" class="" style="fill:#046B50" data-old_color="#e74444"/><path d="m256 272h80l-8 32h-64z" fill="#93573d" data-original="#93573D" class=""/><path d="m304 48h128a16 16 0 0 1 16 16v16a0 0 0 0 1 0 0h-160a0 0 0 0 1 0 0v-16a16 16 0 0 1 16-16z" fill="#e74444" data-original="#E74444" class="" style="fill:#046B50" data-old_color="#e74444"/><path d="m336 272h-176l-16-64 16-64h176l16 64z" fill="#fae8d8" data-original="#FAE8D8" class="" style="fill:#FAE8D8"/><path d="m352 208-16 64h-176l-16-64z" fill="#e2d2c2" data-original="#E2D2C2" class=""/><path d="m224 208h48l-8 32h-32z" fill="#efdece" data-original="#EFDECE" class="" style="fill:#EFDECE"/><path d="m488 264h-63.3l14.661-176h8.639a8 8 0 0 0 8-8v-16a24.028 24.028 0 0 0 -24-24h-128a24.028 24.028 0 0 0 -24 24v16a8 8 0 0 0 8 8h8.639l4 48h-140.639a8 8 0 0 0 -7.761 6.06l-16 64a7.985 7.985 0 0 0 0 3.88l13.515 54.06h-61.754a8 8 0 0 0 -8 8v80h-56a8 8 0 0 0 -8 8v104a8 8 0 0 0 8 8h64a8 8 0 0 0 8-8v-8h167.018a43.359 43.359 0 0 0 20.7-5.278l78.322-42.722h125.96a8 8 0 0 0 8-8v-128a8 8 0 0 0 -8-8zm-8 64h-201.3a35.153 35.153 0 0 0 -2.843-16h52.143a8 8 0 0 0 7.761-6.06l6.485-25.94h137.754zm-209.754-32-4-16h59.508l-4 16zm-1.821 54.888a35.277 35.277 0 0 0 5.361-6.888h51.968l-4 16h-51.508l-2.186-8.746zm27.575-286.888a8.009 8.009 0 0 1 8-8h128a8.009 8.009 0 0 1 8 8v8h-144zm127.305 24-1.333 16h-107.944l-1.328-16zm-107.944 32h105.278l-12 144h-62.393l13.515-54.06a7.985 7.985 0 0 0 0-3.88l-16-64a8 8 0 0 0 -7.761-6.06h-19.306zm-149.115 32h163.508l12 48h-187.508zm95.508 64-4 16h-19.508l-4-16zm-107.508 0h63.508l6.485 25.94a8 8 0 0 0 7.761 6.06h32a8 8 0 0 0 7.761-6.06l6.485-25.94h63.508l-12 48h-163.508zm95.508 64 3.011 12.045a35.254 35.254 0 0 0 -30.875 6.128l-38.349 29.827h-87.541v-48zm-153.754 80v-16h34.207a43.232 43.232 0 0 0 -18.088 32h-16.119zm-16 96h-48v-88h48zm196.056-19.325a27.3 27.3 0 0 1 -13.038 3.325h-167.018v-48h19.227a12.788 12.788 0 0 0 12.773-12.773 27.258 27.258 0 0 1 27.227-27.227h19.666a11.287 11.287 0 0 0 6.893-2.365l49.927-38.835a19.227 19.227 0 0 1 25.4 28.772l-49.261 49.26a11.226 11.226 0 0 0 7.938 19.168h112.837zm-48.742-44.675 27.552-27.552 1.373 5.492a8 8 0 0 0 7.761 6.06h64a8 8 0 0 0 7.761-6.06l6.485-25.94h137.754v48z" data-original="#000000" class="" style="fill:#000000"/></g> </svg>
