<svg height="512" viewBox="0 0 64 64" width="512" xmlns="http://www.w3.org/2000/svg"><g id="Fill_Outline" data-name="Fill Outline"><g id="Stroke_copy" data-name="Stroke copy"><g><path d="m22 43h28v5h-28z" fill="#93999a"/><path d="m50 43v5h-7.91a5.832 5.832 0 0 1 1.45-3h-15.08a5.832 5.832 0 0 1 1.45 3h-7.91v-5z" fill="#656b76"/><path d="m40 21h-8v-4a4 4 0 0 1 4-4 4 4 0 0 1 4 4z" fill="#d0d8da"/><path d="m40 17v4h-8v-4a3.965 3.965 0 0 1 2.46-3.68 6.016 6.016 0 0 0 5.54 3.68z" fill="#93999a"/><path d="m16 39a20 20 0 0 1 40 0z" fill="#d0d8da"/><path d="m49.685 31.716a1 1 0 0 1 -.855-.481c-.086-.14-.173-.279-.263-.417a1 1 0 0 1 1.675-1.093c.1.155.2.313.3.471a1 1 0 0 1 -.854 1.52z" fill="#e9f1f2"/><path d="m47.19 28.574a1 1 0 0 1 -.7-.285 14.91 14.91 0 0 0 -10.49-4.289 1 1 0 0 1 0-2 16.9 16.9 0 0 1 11.89 4.859 1 1 0 0 1 -.7 1.715z" fill="#e9f1f2"/><path d="m59 43h-46a2 2 0 0 1 -2-2 2 2 0 0 1 2-2h46a2 2 0 0 1 2 2 2 2 0 0 1 -2 2z" fill="#d0d8da"/><circle cx="50" cy="49" fill="#f8664f" r="6"/><circle cx="50" cy="49" fill="#d0d8da" r="2"/><circle cx="22" cy="49" fill="#f8664f" r="6"/><circle cx="22" cy="49" fill="#d0d8da" r="2"/><path d="m56 39h-40a19.9 19.9 0 0 1 7.07-15.25 15.982 15.982 0 0 0 14.93 10.25h17.37a20.148 20.148 0 0 1 .63 5z" fill="#93999a"/><path d="m61 41a2.015 2.015 0 0 1 -2 2h-46a2.006 2.006 0 0 1 -2-2 2.015 2.015 0 0 1 2-2 2.006 2.006 0 0 0 2 2z" fill="#93999a"/><g fill="#cc5144"><path d="m52 53a5.91 5.91 0 0 0 3.12-.88 6 6 0 1 1 .07-6.12h-9.1a5.47 5.47 0 0 0 -.09 1 6 6 0 0 0 6 6z"/><path d="m24 53a5.91 5.91 0 0 0 3.12-.88 6 6 0 1 1 .07-6.12h-9.1a5.47 5.47 0 0 0 -.09 1 6 6 0 0 0 6 6z"/></g></g></g><g id="Outline_copy" data-name="Outline copy"><g fill="#464a51"><path d="m49.685 31.716a1 1 0 0 0 .854-1.52c-.1-.158-.2-.316-.3-.471a1 1 0 0 0 -1.675 1.093c.09.138.177.277.263.417a1 1 0 0 0 .858.481z"/><path d="m46.49 28.289a1 1 0 0 0 1.4-1.43 16.9 16.9 0 0 0 -11.89-4.859 1 1 0 0 0 0 2 14.91 14.91 0 0 1 10.49 4.289z"/><path d="m59 38h-2.051a21.007 21.007 0 0 0 -15.949-19.373v-1.627a5 5 0 0 0 -10 0v1.618a21.144 21.144 0 0 0 -4.015 1.437 1 1 0 1 0 .86 1.8 18.944 18.944 0 0 1 27.104 16.145h-37.92a18.841 18.841 0 0 1 7.56-14.165 1 1 0 0 0 -1.2-1.6 20.827 20.827 0 0 0 -8.36 15.765h-2.029a3 3 0 0 0 -3 3 2.966 2.966 0 0 0 .184 1h-4.184a1 1 0 0 0 0 2h11.11a6.989 6.989 0 0 0 -2.033 4.016.657.657 0 0 0 -.077-.016h-4a1 1 0 0 0 0 2h4a.657.657 0 0 0 .077-.016 6.989 6.989 0 0 0 2.033 4.016h-14.11a1 1 0 0 0 0 2h19a7.008 7.008 0 0 0 7-7h11.09a1 1 0 0 0 0-2h-11.385a7 7 0 0 0 -1.816-3h2.111a1 1 0 0 0 0-2h-16a1 1 0 0 1 0-2h46a1 1 0 0 1 0 2h-26a1 1 0 0 0 0 2h17a5 5 0 1 1 -5 5 4.934 4.934 0 0 1 .493-2.167 1 1 0 0 0 -1.8-.869 6.992 6.992 0 0 0 1.417 8.036h-4.11a1 1 0 0 0 0 2h9a6.993 6.993 0 0 0 4.889-12h4.111a3 3 0 0 0 0-6zm-26-19.775v-1.225a3 3 0 0 1 6 0v1.24a20.909 20.909 0 0 0 -3-.24 20.657 20.657 0 0 0 -3 .225zm-6 30.775a5 5 0 1 1 -5-5 5.006 5.006 0 0 1 5 5z"/><path d="m53 49a3 3 0 1 0 -3 3 3 3 0 0 0 3-3zm-4 0a1 1 0 1 1 1 1 1 1 0 0 1 -1-1z"/><path d="m22 52a3 3 0 1 0 -3-3 3 3 0 0 0 3 3zm0-4a1 1 0 1 1 -1 1 1 1 0 0 1 1-1z"/><path d="m37 54h-5a1 1 0 0 0 0 2h5a1 1 0 0 0 0-2z"/><path d="m8 25h9a1 1 0 0 0 0-2h-9a1 1 0 0 0 0 2z"/><path d="m3 31h9a1 1 0 0 0 0-2h-9a1 1 0 0 0 0 2z"/><path d="m12 34h-5a1 1 0 0 0 0 2h5a1 1 0 0 0 0-2z"/></g></g></g></svg>